<svg width="127" height="50" viewBox="0 0 127 50" fill="none" xmlns="http://www.w3.org/2000/svg">
<path d="M3.80011 4.8001C3.80011 4.13736 4.33737 3.6001 5.00011 3.6001H120C121.326 3.6001 122.4 4.67461 122.4 6.0001V45.0001C122.4 45.6628 121.863 46.2001 121.2 46.2001H5.00011C4.33736 46.2001 3.80011 45.6628 3.80011 45.0001V4.8001Z" fill="#313131"/>
<path d="M7.40009 1.80005H3.80009C2.4746 1.80005 1.40009 2.87457 1.40009 4.20005L1.40009 45.0001C1.40009 46.3255 2.4746 47.4001 3.80009 47.4001H7.40009" stroke="white" stroke-width="2.4"/>
<rect x="7.40009" y="0.600098" width="98.6001" height="2.4" fill="white"/>
<rect x="7.40009" y="46.2001" width="98.6001" height="2.4" fill="white"/>
<path d="M106 1.79858H108.192C108.8 1.79858 109.386 2.02948 109.83 2.44461L124.438 16.0882C124.924 16.5421 125.2 17.1772 125.2 17.8422V45.0015C125.2 46.327 124.126 47.4015 122.8 47.4015H106" stroke="white" stroke-width="2.4"/>
</svg>
