<svg width="49" height="48" viewBox="0 0 49 48" fill="none" xmlns="http://www.w3.org/2000/svg">
<rect x="0.200073" y="0.000488281" width="48" height="48" rx="24" fill="#222325"/>
<g clip-path="url(#clip0_2_6859)">
<path d="M22.3358 22.3449C22.0492 22.3685 21.782 22.499 21.5872 22.7105C21.3923 22.922 21.2842 23.1991 21.2842 23.4866C21.2842 23.7742 21.3923 24.0512 21.5872 24.2628C21.782 24.4743 22.0492 24.6048 22.3358 24.6283C22.48 24.6231 22.6218 24.5893 22.7529 24.5289C22.884 24.4685 23.0018 24.3828 23.0996 24.2767C23.1974 24.1705 23.2732 24.046 23.3226 23.9104C23.372 23.7748 23.3941 23.6308 23.3875 23.4866C23.3946 23.3423 23.3729 23.1981 23.3237 23.0623C23.2744 22.9264 23.1987 22.8018 23.1008 22.6955C23.0029 22.5892 22.8849 22.5035 22.7535 22.4433C22.6222 22.3831 22.4802 22.3497 22.3358 22.3449ZM26.0901 22.3449C25.8603 22.326 25.6302 22.3769 25.4297 22.4909C25.2293 22.605 25.068 22.7768 24.9668 22.984C24.8657 23.1912 24.8294 23.4241 24.8627 23.6523C24.8961 23.8804 24.9975 24.0932 25.1537 24.2628C25.3099 24.4324 25.5137 24.5509 25.7383 24.6028C25.963 24.6547 26.1981 24.6376 26.4129 24.5538C26.6276 24.4699 26.8121 24.3232 26.9422 24.1328C27.0722 23.9424 27.1418 23.7172 27.1418 23.4866C27.1484 23.3427 27.1264 23.1988 27.0771 23.0634C27.0279 22.928 26.9523 22.8036 26.8548 22.6975C26.7573 22.5914 26.6398 22.5056 26.509 22.4451C26.3782 22.3846 26.2367 22.3505 26.0927 22.3449H26.0901Z" fill="#808080"/>
<path d="M31.0916 13.7148H17.3088C17.031 13.7155 16.756 13.7709 16.4997 13.878C16.2433 13.985 16.0106 14.1415 15.8148 14.3385C15.6189 14.5355 15.4638 14.7692 15.3584 15.0262C15.2529 15.2832 15.1992 15.5585 15.2002 15.8363V29.74C15.1992 30.0178 15.2529 30.293 15.3584 30.5501C15.4638 30.8071 15.6189 31.0408 15.8148 31.2378C16.0106 31.4348 16.2433 31.5913 16.4997 31.6983C16.756 31.8053 17.031 31.8607 17.3088 31.8614H28.9728L28.4276 29.9586L29.7442 31.18L30.9888 32.332L33.2002 34.2863V15.8363C33.2012 15.5585 33.1475 15.2832 33.042 15.0262C32.9366 14.7692 32.7815 14.5355 32.5857 14.3385C32.3898 14.1415 32.1571 13.985 31.9007 13.878C31.6444 13.7709 31.3694 13.7155 31.0916 13.7148V13.7148ZM27.1214 27.1506C27.1214 27.1506 26.7511 26.7083 26.4425 26.3148C27.1886 26.1405 27.849 25.7078 28.3068 25.0934C27.9367 25.3397 27.5399 25.5433 27.1239 25.7003C26.6454 25.9045 26.145 26.0529 25.6325 26.1426C24.7516 26.3048 23.8481 26.3013 22.9685 26.1323C22.4521 26.0312 21.946 25.8832 21.4565 25.69C21.0432 25.5297 20.6483 25.3254 20.2788 25.0806C20.719 25.6826 21.3556 26.1119 22.0788 26.2943C21.7702 26.6851 21.3896 27.148 21.3896 27.148C20.7786 27.1645 20.1729 27.0305 19.6259 26.7579C19.0788 26.4853 18.6072 26.0823 18.2525 25.5846C18.2851 23.4995 18.7906 21.4492 19.7311 19.588C20.5601 18.9369 21.571 18.5595 22.6239 18.508L22.7268 18.6314C21.737 18.8764 20.8134 19.3364 20.0216 19.9788C20.0216 19.9788 20.2479 19.8554 20.6285 19.6806C21.3686 19.3428 22.1575 19.1241 22.9659 19.0326C23.0235 19.0206 23.082 19.0138 23.1408 19.012C23.83 18.9222 24.5276 18.9153 25.2185 18.9914C26.305 19.1155 27.3568 19.451 28.3145 19.9788C27.5629 19.367 26.6899 18.9218 25.7534 18.6726L25.8974 18.508C26.9503 18.5595 27.9611 18.9369 28.7902 19.588C29.7306 21.4492 30.2362 23.4995 30.2688 25.5846C29.9114 26.0823 29.4379 26.4851 28.8894 26.758C28.3408 27.031 27.7339 27.1657 27.1214 27.1506Z" fill="#808080"/>
</g>
<defs>
<clipPath id="clip0_2_6859">
<rect width="20.5714" height="20.5714" fill="white" transform="translate(13.9144 13.7148)"/>
</clipPath>
</defs>
</svg>
