<svg width="39" height="40" viewBox="0 0 39 40" fill="none" xmlns="http://www.w3.org/2000/svg">
<path d="M8.18292 7.22084C5.31834 9.01121 3.89096 11.2611 3.89096 13.4546C3.89096 15.6481 4.37981 17.0398 9.12733 20C12.6182 21.81 26.8021 27.0143 26.8021 27.0143C27.8091 27.2788 29.6191 27.958 30.536 28.3272C31.3613 28.7003 32.1409 29.1156 32.8674 29.5696C36.3201 31.7276 38.8001 34.9322 38.8001 38.7637C38.8001 38.9101 38.7964 39.0555 38.7893 39.2001H35.2904C35.3029 39.0544 35.3091 38.9089 35.3091 38.7637C35.3091 36.5702 33.8818 34.3203 31.0172 32.5299C30.0131 31.9024 28.8601 31.3524 27.5881 30.9035C27.5881 30.9035 9.98647 24.822 6.50915 22.6486C1.77269 19.6883 0.400055 17.286 0.400055 13.4546C0.400055 9.62315 2.88002 6.41851 6.33274 4.26056C9.81006 2.08723 14.5053 0.800049 19.6001 0.800049C24.6948 0.800049 29.39 2.08723 32.8674 4.26056C36.3201 6.41851 38.8001 9.62315 38.8001 13.4546C38.8001 17.286 36.3201 20.4907 32.8674 22.6486C32.1891 23.0725 31.4646 23.4627 30.6998 23.8162L25.9817 21.81C27.8992 21.2998 29.6055 20.5707 31.0172 19.6883C33.8818 17.898 35.3091 15.6481 35.3091 13.4546C35.3091 11.2611 33.8818 9.01121 31.0172 7.22084C28.1772 5.44586 24.1452 4.29096 19.6001 4.29096C15.0549 4.29096 11.0229 5.44586 8.18292 7.22084Z" fill="#7D7D7D"/>
<path d="M8.18292 32.5299C5.31834 34.3203 3.89096 36.5702 3.89096 38.7637C3.89096 38.9089 3.89722 39.0544 3.90975 39.2H0.41083C0.403675 39.0555 0.400055 38.9101 0.400055 38.7637C0.400055 34.9322 2.88002 31.7276 6.33274 29.5696C7.10554 29.0866 7.9385 28.6474 8.82263 28.2563L13.8228 30.2564C11.6587 30.7686 9.74134 31.5559 8.18292 32.5299Z" fill="#7D7D7D"/>
<path d="M27.4546 38.7637C27.4546 38.9118 27.4275 39.0575 27.3751 39.2001L11.8251 39.2C11.7726 39.0575 11.7455 38.9118 11.7455 38.7637C11.7455 37.0767 15.2621 35.7091 19.6001 35.7091C23.938 35.7091 27.4546 37.0767 27.4546 38.7637Z" fill="#7D7D7D"/>
<path d="M19.6001 15.6364C23.938 15.6364 27.4546 14.2688 27.4546 12.5819C27.4546 10.8949 23.938 9.52732 19.6001 9.52732C15.2621 9.52732 11.7455 10.8949 11.7455 12.5819C11.7455 14.2688 15.2621 15.6364 19.6001 15.6364Z" fill="#7D7D7D"/>
</svg>
