<svg width="39" height="40" viewBox="0 0 39 40" fill="none" xmlns="http://www.w3.org/2000/svg">
<path fill-rule="evenodd" clip-rule="evenodd" d="M27.2599 10.4C26.5936 13.3366 24.282 15.6482 21.3455 16.3145V23.6856C24.282 24.3519 26.5936 26.6635 27.2599 29.6H38.08C38.4777 29.6 38.8 29.9224 38.8 30.3201V32.371C38.8 32.7686 38.4777 33.091 38.08 33.091H27.2599C26.4662 36.5888 23.3381 39.2001 19.6 39.2001C15.862 39.2001 12.7338 36.5888 11.9401 33.091H1.12002C0.722379 33.091 0.400024 32.7686 0.400024 32.371V30.3201C0.400024 29.9224 0.722379 29.6 1.12002 29.6H11.9401C12.6064 26.6635 14.9181 24.3519 17.8546 23.6856V16.3145C14.9181 15.6482 12.6064 13.3366 11.9401 10.4L1.12002 10.4C0.722379 10.4 0.400024 10.0777 0.400024 9.68005V7.62914C0.400024 7.23149 0.722379 6.90914 1.12002 6.90914L11.9401 6.90914C12.7338 3.41127 15.862 0.800049 19.6 0.800049C23.3381 0.800049 26.4662 3.41127 27.2599 6.90914L38.08 6.90914C38.4777 6.90914 38.8 7.2315 38.8 7.62914V9.68005C38.8 10.0777 38.4777 10.4 38.08 10.4L27.2599 10.4ZM19.6 13.0182C22.01 13.0182 23.9637 11.0646 23.9637 8.65459C23.9637 6.24463 22.01 4.29096 19.6 4.29096C17.1901 4.29096 15.2364 6.24463 15.2364 8.65459C15.2364 11.0646 17.1901 13.0182 19.6 13.0182ZM19.6 35.7091C22.01 35.7091 23.9637 33.7555 23.9637 31.3455C23.9637 28.9355 22.01 26.9819 19.6 26.9819C17.1901 26.9819 15.2364 28.9355 15.2364 31.3455C15.2364 33.7555 17.1901 35.7091 19.6 35.7091Z" fill="#7D7D7D"/>
<path d="M27.4546 18.9746C27.4546 18.577 27.7769 18.2546 28.1746 18.2546H38.08C38.4777 18.2546 38.8 18.577 38.8 18.9746V21.0255C38.8 21.4231 38.4777 21.7455 38.08 21.7455H28.1746C27.7769 21.7455 27.4546 21.4231 27.4546 21.0255V18.9746Z" fill="#7D7D7D"/>
<path d="M11.7455 18.9746C11.7455 18.577 11.4231 18.2546 11.0255 18.2546H1.12002C0.722379 18.2546 0.400024 18.577 0.400024 18.9746V21.0255C0.400024 21.4231 0.722379 21.7455 1.12002 21.7455H11.0255C11.4231 21.7455 11.7455 21.4231 11.7455 21.0255V18.9746Z" fill="#7D7D7D"/>
</svg>
