<svg width="39" height="39" viewBox="0 0 39 39" fill="none" xmlns="http://www.w3.org/2000/svg">
<path d="M8.07349 0.903017C8.52357 0.45293 9.13402 0.200073 9.77054 0.200073H12.5545C12.9821 0.200073 13.1963 0.717103 12.8939 1.01949L1.21944 12.694C0.917053 12.9963 0.400025 12.7822 0.400025 12.3545L0.400025 9.57059C0.400025 8.93407 0.65288 8.32362 1.10297 7.87354L8.07349 0.903017Z" fill="#7D7D7D"/>
<path d="M1.10297 31.2988C0.652881 30.8488 0.400024 30.2383 0.400024 29.6018L0.400025 26.8178C0.400025 26.3902 0.917054 26.176 1.21944 26.4784L12.5217 37.7807C12.8241 38.083 12.6099 38.6001 12.1823 38.6001H9.39831C8.76179 38.6001 8.15134 38.3472 7.70125 37.8971L1.10297 31.2988Z" fill="#7D7D7D"/>
<path d="M31.8709 37.8971C31.4208 38.3472 30.8104 38.6001 30.1739 38.6001H27.3899C26.9623 38.6001 26.7481 38.083 27.0505 37.7807L37.9806 26.8506C38.283 26.5482 38.8 26.7623 38.8 27.19V29.9739C38.8 30.6104 38.5472 31.2209 38.0971 31.671L31.8709 37.8971Z" fill="#7D7D7D"/>
<path d="M38.8 9.19846C38.8 8.56195 38.5472 7.9515 38.0971 7.50141L31.4987 0.903017C31.0486 0.45293 30.4382 0.200073 29.8016 0.200073H27.0177C26.59 0.200073 26.3759 0.717101 26.6783 1.01948L37.9806 12.3218C38.283 12.6242 38.8 12.4101 38.8 11.9824V9.19846Z" fill="#7D7D7D"/>
<path d="M23.0909 28.7185C23.0909 29.1462 23.608 29.3603 23.9103 29.0579L32.5654 20.4029C33.034 19.9342 33.034 19.1744 32.5654 18.7058L23.9103 10.0507C23.6079 9.74834 23.0909 9.9625 23.0909 10.3901L23.0909 13.1741C23.0909 13.8106 23.3438 14.4211 23.7938 14.8711L27.6285 18.7058C28.0971 19.1744 28.0971 19.9342 27.6285 20.4029L23.7939 24.2375C23.3438 24.6876 23.0909 25.298 23.0909 25.9346L23.0909 28.7185Z" fill="#7D7D7D"/>
<path d="M16.1091 13.5463C16.1091 14.1828 15.8562 14.7932 15.4061 15.2433L11.9437 18.7058C11.475 19.1744 11.475 19.9342 11.9437 20.4029L15.4062 23.8654C15.8562 24.3155 16.1091 24.9259 16.1091 25.5624L16.1091 28.3464C16.1091 28.774 15.5921 28.9882 15.2897 28.6858L7.00677 20.4029C6.53815 19.9342 6.53815 19.1744 7.00677 18.7058L15.2897 10.4229C15.5921 10.1205 16.1091 10.3347 16.1091 10.7623L16.1091 13.5463Z" fill="#7D7D7D"/>
</svg>
