<svg width="39" height="40" viewBox="0 0 39 40" fill="none" xmlns="http://www.w3.org/2000/svg">
<path fill-rule="evenodd" clip-rule="evenodd" d="M25.7091 1.79242C33.3179 4.34428 38.8 11.532 38.8 20.0001C38.8 28.4682 33.3179 35.6559 25.7091 38.2078L22.8294 39.0263C22.523 39.1134 22.2182 38.8832 22.2182 38.5646L22.2182 26.0478C21.1913 26.6419 19.999 26.9819 18.7273 26.9819C14.8713 26.9819 11.7455 23.856 11.7455 20C11.7455 16.1441 14.8713 13.0182 18.7273 13.0182C19.999 13.0182 21.1913 13.3582 22.2182 13.9523L22.2182 1.43552C22.2182 1.11688 22.523 0.886683 22.8295 0.97381L25.7091 1.79242ZM25.7091 34.477C31.3503 32.0936 35.3091 26.5092 35.3091 20.0001C35.3091 13.491 31.3503 7.90657 25.7091 5.52313L25.7091 34.477ZM22.2182 19.9976C22.2169 18.0708 20.6545 16.5091 18.7273 16.5091C16.7993 16.5091 15.2364 18.0721 15.2364 20C15.2364 21.928 16.7993 23.491 18.7273 23.491C20.6545 23.491 22.2169 21.9293 22.2182 20.0025L22.2182 19.9976Z" fill="#7D7D7D"/>
<path d="M15.5434 38.7707C15.8365 38.8338 16.1091 38.6071 16.1091 38.3073V35.7032C16.1091 35.479 15.9533 35.2854 15.7359 35.2304C8.92846 33.5086 3.89093 27.3426 3.89093 20.0001C3.89093 12.6575 8.92846 6.49158 15.7359 4.76978C15.9533 4.71481 16.1091 4.52115 16.1091 4.29698V1.69287C16.1091 1.39304 15.8365 1.16639 15.5434 1.22943C6.88776 3.09115 0.400024 10.788 0.400024 20.0001C0.400024 29.2122 6.88776 36.909 15.5434 38.7707Z" fill="#7D7D7D"/>
</svg>
