<svg width="39" height="39" viewBox="0 0 39 39" fill="none" xmlns="http://www.w3.org/2000/svg">
<path d="M16.3836 3.86043C16.7277 3.78851 16.9819 3.4902 16.9819 3.13873L16.9819 0.75033C16.9819 0.459341 16.7249 0.234835 16.4378 0.282621C14.6143 0.586195 12.8776 1.14792 11.2661 1.92916C11.0232 2.04691 10.8728 2.29519 10.8728 2.56511L10.8728 5.28567C10.8728 5.66992 11.304 5.90149 11.6346 5.7057C13.0845 4.84711 14.6837 4.21576 16.3836 3.86043Z" fill="#7D7D7D"/>
<path fill-rule="evenodd" clip-rule="evenodd" d="M5.63639 11.8996C5.63639 12.0142 5.60878 12.127 5.55748 12.2294C4.49126 14.3591 3.89094 16.7647 3.89094 19.3112C3.89094 24.6485 6.52821 29.367 10.565 32.2231C10.1993 31.2028 10 30.1026 10 28.9556C10 24.228 13.386 20.2948 17.8546 19.4702L17.8546 9.94833C17.8546 9.55068 18.1769 9.22833 18.5746 9.22833L20.6255 9.22833C21.0231 9.22833 21.3455 9.55069 21.3455 9.94833L21.3455 19.4702C25.8141 20.2948 29.2 24.228 29.2 28.9556C29.2 30.1026 29.0007 31.2028 28.6351 32.2231C32.6719 29.367 35.3091 24.6485 35.3091 19.3112C35.3091 16.1622 34.3911 13.2286 32.8093 10.7658C32.7329 10.6469 32.6909 10.509 32.6909 10.3677L32.6909 6.30817C32.6909 5.88805 33.1873 5.6763 33.477 5.98058C36.7745 9.44411 38.8 14.14 38.8 19.3112C38.8 29.9642 30.2039 38.6001 19.6 38.6001C8.99616 38.6001 0.400029 29.9642 0.40003 19.3112C0.40003 14.622 2.06557 10.3236 4.83475 6.98056C5.11215 6.64567 5.63639 6.84904 5.63639 7.2839L5.63639 11.8996ZM19.6 35.093C22.974 35.093 25.7091 32.3452 25.7091 28.9556C25.7091 25.5661 22.974 22.8183 19.6 22.8183C16.2261 22.8183 13.4909 25.5661 13.4909 28.9556C13.4909 32.3452 16.2261 35.093 19.6 35.093Z" fill="#7D7D7D"/>
<path d="M27.4546 2.17006C27.4546 1.88694 27.2891 1.62896 27.0283 1.51891C25.6778 0.949187 24.2489 0.530112 22.7622 0.282618C22.4752 0.234835 22.2182 0.459342 22.2182 0.75033L22.2182 3.13874C22.2182 3.4902 22.4724 3.78852 22.8165 3.86043C24.1932 4.14821 25.5038 4.61701 26.7226 5.24095C27.052 5.40961 27.4546 5.17665 27.4546 4.80654L27.4546 2.17006Z" fill="#7D7D7D"/>
</svg>
