<svg width="39" height="39" viewBox="0 0 39 39" fill="none" xmlns="http://www.w3.org/2000/svg">
<path fill-rule="evenodd" clip-rule="evenodd" d="M27.6166 19.4001C27.6166 17.897 27.2029 16.4905 26.4831 15.2882L38.2909 3.48046C38.5721 3.19928 38.5721 2.7434 38.2909 2.46222L36.5379 0.709187C36.2567 0.428011 35.8008 0.42801 35.5197 0.709187L23.7118 12.517C22.5096 11.7973 21.1031 11.3836 19.6001 11.3836C18.097 11.3836 16.6905 11.7973 15.4883 12.517L3.68044 0.709274C3.39927 0.428098 2.94339 0.428098 2.66221 0.709275L0.909174 2.46231C0.627995 2.74349 0.627994 3.19937 0.909173 3.48054L12.717 15.2883C11.9973 16.4905 11.5836 17.897 11.5836 19.4001C11.5836 20.9032 11.9973 22.3097 12.717 23.5119L0.909186 35.3196C0.628007 35.6008 0.628008 36.0567 0.909186 36.3378L2.66223 38.0909C2.9434 38.3721 3.39928 38.3721 3.68046 38.0909L15.4882 26.2831C16.6905 27.0029 18.097 27.4166 19.6001 27.4166C21.1032 27.4166 22.5096 27.0029 23.7118 26.2832L35.5197 38.091C35.8008 38.3721 36.2567 38.3721 36.5379 38.091L38.2909 36.3379C38.5721 36.0567 38.5721 35.6009 38.2909 35.3197L26.4831 23.5119C27.2029 22.3097 27.6166 20.9032 27.6166 19.4001ZM19.6001 23.8537C22.0597 23.8537 24.0537 21.8598 24.0537 19.4001C24.0537 16.9404 22.0597 14.9465 19.6001 14.9465C17.1404 14.9465 15.1465 16.9404 15.1465 19.4001C15.1465 21.8598 17.1404 23.8537 19.6001 23.8537Z" fill="#7D7D7D"/>
<path d="M21.1069 6.03932C21.5045 6.03932 21.8269 5.71697 21.8269 5.31932V1.41501C21.8269 1.01737 21.5045 0.695013 21.1069 0.695013L18.0933 0.695013C17.6956 0.695013 17.3733 1.01737 17.3733 1.41501V5.31932C17.3733 5.71697 17.6956 6.03932 18.0933 6.03932L21.1069 6.03932Z" fill="#7D7D7D"/>
<path d="M21.1069 32.7609C21.5045 32.7609 21.8269 33.0832 21.8269 33.4809V37.3852C21.8269 37.7828 21.5045 38.1052 21.1069 38.1052H18.0933C17.6956 38.1052 17.3733 37.7828 17.3733 37.3852V33.4809C17.3733 33.0832 17.6956 32.7609 18.0933 32.7609H21.1069Z" fill="#7D7D7D"/>
<path d="M32.9609 17.8933C32.9609 17.4957 33.2832 17.1733 33.6809 17.1733H37.5852C37.9829 17.1733 38.3052 17.4957 38.3052 17.8933V20.9069C38.3052 21.3045 37.9829 21.6269 37.5852 21.6269H33.6809C33.2832 21.6269 32.9609 21.3045 32.9609 20.9069V17.8933Z" fill="#7D7D7D"/>
<path d="M6.23925 17.8933C6.23925 17.4957 5.9169 17.1733 5.51925 17.1733H1.61492C1.21728 17.1733 0.894922 17.4957 0.894922 17.8933L0.894922 20.9069C0.894922 21.3045 1.21728 21.6269 1.61492 21.6269H5.51925C5.9169 21.6269 6.23925 21.3045 6.23925 20.9069V17.8933Z" fill="#7D7D7D"/>
</svg>
