<svg width="327" height="327" viewBox="0 0 327 327" fill="none" xmlns="http://www.w3.org/2000/svg">
<circle cx="163.687" cy="163.465" r="159.617" fill="black" stroke="#1A171A" stroke-width="7.29677"/>
<path opacity="0.2" d="M167.287 323.13C77.1178 323.13 4.02148 250.034 4.02148 159.865" stroke="white" stroke-width="7.29677"/>
<g clip-path="url(#clip0_2006_26)">
<path d="M168.044 42.5643C101.552 42.5643 47.6499 96.4849 47.6499 163C47.6499 229.515 101.552 283.436 168.044 283.436C234.536 283.436 288.438 229.515 288.438 163C288.438 96.4849 234.536 42.5643 168.044 42.5643ZM261.806 163C261.806 180.724 256.892 197.299 248.351 211.437L183.061 146.125V70.4031C227.705 77.5924 261.806 116.311 261.806 163ZM153.026 188.613V255.595C135.726 252.809 120.012 245.289 107.25 234.406L153.026 188.613ZM183.06 188.613L228.836 234.406C216.074 245.289 200.358 252.809 183.06 255.595V188.613ZM153.026 70.4031V146.125L87.737 211.437C79.1976 197.299 74.2815 180.724 74.2815 163C74.2815 116.313 108.383 77.5941 153.026 70.4031Z" fill="white"/>
<path d="M168.044 41C155.29 41.017 142.537 42.9818 130.403 46.9232C118.697 50.7266 107.567 56.3124 97.5368 63.4506C87.5274 70.5751 78.6406 79.16 71.1608 88.9071C63.6775 98.6592 57.7172 109.539 53.4825 121.079C49.1131 132.984 46.6704 145.585 46.1781 158.254C45.6807 171.065 47.1951 183.98 50.6905 196.317C54.0531 208.191 59.2486 219.562 66.0266 229.873C72.7501 240.102 80.9998 249.33 90.4471 257.114C99.9489 264.942 110.561 271.296 121.947 275.97C133.619 280.762 146.027 283.656 158.602 284.634C171.432 285.63 184.44 284.586 196.946 281.551C208.971 278.632 220.559 273.837 231.141 267.421C241.607 261.075 251.133 253.141 259.253 243.982C267.371 234.825 274.132 224.464 279.171 213.306C284.358 201.819 287.724 189.61 289.184 177.092C290.68 164.268 290.107 151.206 287.547 138.552C285.082 126.374 280.703 114.578 274.662 103.724C268.707 93.0189 261.108 83.2054 252.248 74.7483C243.413 66.3134 233.306 59.1888 222.37 53.7478C211.187 48.1825 199.162 44.3365 186.814 42.4467C180.6 41.4959 174.33 41.0085 168.044 41C166.032 40.9966 166.029 44.1235 168.044 44.1269C180.539 44.1439 192.967 46.0763 204.854 49.9393C216.26 53.6456 227.063 59.1189 236.844 66.0595C246.525 72.9301 255.209 81.3037 262.42 90.7372C269.68 100.237 275.539 110.829 279.646 122.062C283.908 133.721 286.327 146.019 286.791 158.423C287.257 170.922 285.792 183.45 282.384 195.486C279.089 207.117 274.001 218.195 267.363 228.295C260.84 238.218 252.817 247.13 243.675 254.702C234.48 262.319 224.073 268.571 213.013 273.077C201.644 277.708 189.562 280.587 177.319 281.519C164.755 282.476 152.057 281.488 139.814 278.496C128.088 275.631 116.847 270.978 106.524 264.72C96.3172 258.533 87.0794 250.81 79.1499 241.888C71.2306 232.979 64.6826 222.869 59.7477 212.018C54.6885 200.891 51.3719 188.906 49.9921 176.76C48.5731 164.268 49.0774 151.544 51.5882 139.222C54.0173 127.301 58.2742 115.785 64.2039 105.162C70.0024 94.7724 77.3425 85.2911 85.9364 77.0675C94.5779 68.7978 104.453 61.859 115.154 56.5169C126.037 51.0844 137.765 47.385 149.78 45.5106C155.82 44.5682 161.935 44.1337 168.046 44.1252C170.057 44.1218 170.061 40.9949 168.046 40.9983L168.044 41Z" fill="white"/>
<path d="M260.243 163C260.226 176.07 257.493 189.113 252.078 201.02C250.574 204.326 248.874 207.538 247.002 210.648C247.819 210.542 248.639 210.437 249.456 210.331C247.29 208.164 245.123 205.996 242.958 203.83C237.755 198.626 232.553 193.422 227.351 188.218C221.06 181.923 214.768 175.63 208.477 169.337C203.041 163.9 197.607 158.464 192.171 153.026C190.383 151.237 188.594 149.448 186.807 147.66C185.969 146.822 185.163 145.919 184.279 145.132C184.24 145.098 184.206 145.058 184.169 145.021C184.322 145.389 184.474 145.759 184.627 146.127V73.4891C184.627 72.5109 184.695 71.5039 184.627 70.5275C184.623 70.4866 184.627 70.444 184.627 70.4031C183.968 70.9057 183.308 71.4084 182.649 71.9111C191.088 73.2795 199.394 75.7997 207.075 79.4089C214.659 82.972 221.777 87.5643 228.083 92.9934C234.395 98.4275 239.965 104.675 244.581 111.545C249.281 118.542 253.005 126.11 255.625 134.076C258.355 142.381 259.885 150.953 260.19 159.655C260.229 160.769 260.248 161.884 260.248 163C260.249 165.012 263.375 165.016 263.374 163C263.363 153.982 262.106 144.953 259.583 136.293C257.156 127.963 253.574 119.949 248.979 112.591C244.426 105.298 238.881 98.6065 232.55 92.7889C226.227 86.9816 219.122 82.0041 211.476 78.095C203.688 74.111 195.353 71.1852 186.77 69.4863C185.676 69.2699 184.579 69.0739 183.48 68.8967C182.496 68.7365 181.503 69.3006 181.503 70.4048V142.541C181.503 143.695 181.464 144.856 181.503 146.007C181.535 146.969 182.186 147.458 182.804 148.074C185.806 151.077 188.807 154.079 191.81 157.084C196.921 162.196 202.033 167.31 207.143 172.422C212.89 178.171 218.636 183.919 224.383 189.668C229.293 194.579 234.202 199.49 239.11 204.399C241.704 206.995 244.3 209.592 246.894 212.187L247.25 212.543C247.969 213.262 249.187 213.087 249.705 212.226C256.601 200.778 260.999 187.971 262.65 174.714C263.133 170.828 263.368 166.916 263.374 163C263.377 160.988 260.251 160.984 260.248 163H260.243Z" fill="white"/>
<path d="M151.464 188.613V252.881C151.464 253.748 151.447 254.615 151.464 255.483C151.464 255.52 151.464 255.559 151.464 255.597C152.124 255.094 152.783 254.592 153.442 254.089C146.817 253.019 140.312 251.24 134.07 248.776C133.689 248.626 133.311 248.472 132.931 248.317C132.759 248.247 132.587 248.176 132.415 248.104C132.313 248.062 132.209 248.019 132.106 247.975C132.481 248.138 132.156 247.995 132.069 247.958C131.284 247.622 130.503 247.278 129.728 246.92C128.25 246.24 126.788 245.521 125.347 244.766C122.445 243.244 119.624 241.568 116.896 239.751C115.37 238.734 113.873 237.671 112.408 236.565C112.232 236.432 112.057 236.299 111.883 236.166C111.796 236.099 111.708 236.033 111.621 235.965C111.669 236.002 111.716 236.038 111.764 236.076C111.706 236.031 111.648 235.985 111.59 235.941C111.214 235.648 110.841 235.353 110.469 235.055C109.756 234.481 109.05 233.896 108.354 233.303V235.515C108.764 235.104 109.173 234.695 109.584 234.285C110.694 233.174 111.803 232.064 112.914 230.953C114.554 229.312 116.195 227.671 117.835 226.03L123.862 220.001C126.054 217.808 128.246 215.615 130.439 213.422L137.077 206.782C139.14 204.718 141.204 202.653 143.267 200.589C145.012 198.844 146.756 197.099 148.5 195.354C149.759 194.095 151.018 192.836 152.275 191.578C152.868 190.985 153.469 190.397 154.055 189.798C154.081 189.772 154.106 189.746 154.132 189.721C154.711 189.141 154.754 188.082 154.132 187.509C153.508 186.936 152.539 186.89 151.921 187.509C151.51 187.92 151.101 188.329 150.691 188.739C149.58 189.85 148.471 190.96 147.361 192.071C145.72 193.712 144.08 195.353 142.439 196.994C140.431 199.003 138.423 201.012 136.413 203.022C134.22 205.216 132.028 207.409 129.836 209.602L123.197 216.242C121.135 218.306 119.07 220.371 117.007 222.435C115.263 224.18 113.518 225.925 111.774 227.67C110.515 228.929 109.256 230.188 107.999 231.446C107.407 232.039 106.805 232.627 106.219 233.226C106.194 233.252 106.168 233.278 106.143 233.303C105.58 233.865 105.497 234.965 106.143 235.515C111.25 239.865 116.794 243.703 122.695 246.898C128.633 250.112 134.927 252.703 141.411 254.588C145.088 255.657 148.829 256.497 152.609 257.107C153.122 257.19 153.551 257.153 153.972 256.827C154.357 256.529 154.588 256.096 154.588 255.6V191.333C154.588 190.465 154.599 189.598 154.588 188.731C154.588 188.693 154.588 188.654 154.588 188.617C154.588 187.799 153.87 187.015 153.026 187.054C152.18 187.092 151.463 187.741 151.463 188.617L151.464 188.613Z" fill="white"/>
<path d="M181.956 189.719L183.186 190.949C184.296 192.06 185.405 193.17 186.516 194.281C188.156 195.922 189.797 197.563 191.437 199.204C193.446 201.213 195.454 203.222 197.464 205.233L204.041 211.812C206.254 214.025 208.467 216.239 210.679 218.452C212.742 220.516 214.807 222.581 216.87 224.645C218.614 226.39 220.358 228.135 222.103 229.88C223.361 231.139 224.62 232.398 225.877 233.656C226.47 234.249 227.054 234.855 227.657 235.437C227.683 235.462 227.709 235.488 227.734 235.513V233.301C227.092 233.848 226.445 234.387 225.789 234.915C225.504 235.145 225.216 235.373 224.93 235.6C224.758 235.736 224.584 235.871 224.411 236.007C224.348 236.057 224.181 236.19 224.467 235.965C224.351 236.055 224.235 236.144 224.118 236.232C222.835 237.212 221.527 238.16 220.196 239.073C217.495 240.925 214.696 242.636 211.817 244.195C210.354 244.988 208.87 245.739 207.368 246.453C206.63 246.802 205.889 247.142 205.143 247.472C204.787 247.631 204.429 247.786 204.072 247.939C203.986 247.975 203.901 248.014 203.816 248.048C204.21 247.891 203.852 248.033 203.779 248.063C203.573 248.15 203.366 248.236 203.16 248.319C200.082 249.582 196.936 250.677 193.74 251.603C190.098 252.657 186.392 253.486 182.649 254.091C183.308 254.593 183.968 255.096 184.627 255.599V191.331C184.627 190.464 184.637 189.596 184.627 188.729C184.627 188.692 184.627 188.652 184.627 188.615C184.627 187.797 183.908 187.013 183.063 187.052C182.217 187.09 181.501 187.739 181.501 188.615V252.882C181.501 253.75 181.491 254.617 181.501 255.484C181.501 255.522 181.501 255.559 181.501 255.599C181.501 256.094 181.731 256.529 182.118 256.826C182.538 257.151 182.968 257.188 183.48 257.105C190.178 256.023 196.754 254.217 203.06 251.71C209.299 249.231 215.279 246.124 220.862 242.392C224.021 240.281 227.054 237.977 229.947 235.515C230.591 234.966 230.507 233.864 229.947 233.303C229.536 232.892 229.128 232.483 228.717 232.073C227.606 230.962 226.497 229.852 225.387 228.741C223.746 227.1 222.106 225.459 220.466 223.818C218.457 221.809 216.449 219.8 214.439 217.79L207.862 211.21L201.223 204.57C199.161 202.506 197.096 200.441 195.033 198.377C193.289 196.632 191.545 194.887 189.8 193.143C188.541 191.883 187.283 190.624 186.025 189.366C185.433 188.773 184.845 188.172 184.245 187.586C184.22 187.56 184.194 187.535 184.169 187.509C183.589 186.93 182.53 186.887 181.958 187.509C181.385 188.133 181.339 189.102 181.958 189.721L181.956 189.719Z" fill="white"/>
<path d="M151.464 70.403V143.037C151.464 144.015 151.396 145.022 151.464 145.999C151.468 146.04 151.464 146.082 151.464 146.123C151.618 145.755 151.769 145.385 151.923 145.017C149.756 147.185 147.589 149.352 145.424 151.518C140.222 156.722 135.019 161.926 129.817 167.131C123.526 173.424 117.234 179.718 110.943 186.011C105.507 191.449 100.073 196.885 94.6376 202.322C92.849 204.111 91.0604 205.901 89.2734 207.688C88.4354 208.527 87.5308 209.331 86.7455 210.217C86.7115 210.256 86.6723 210.29 86.6348 210.328C87.4525 210.433 88.2718 210.539 89.0895 210.645C81.935 198.768 77.4737 185.328 76.2285 171.51C75.1451 159.491 76.3597 147.437 79.8858 135.914C83.1002 125.414 88.2207 115.527 94.934 106.781C101.482 98.2486 109.669 90.79 118.775 85.027C128.171 79.0816 138.489 74.9068 149.388 72.654C150.735 72.3763 152.088 72.1292 153.445 71.9077C154.28 71.7731 154.743 70.7353 154.537 69.9838C154.294 69.0977 153.451 68.7569 152.614 68.8916C141.312 70.7234 130.359 74.6341 120.443 80.3614C110.762 85.9523 102.054 93.2711 94.8948 101.859C87.6262 110.579 81.9333 120.529 78.1415 131.232C74.1452 142.507 72.343 154.572 72.7859 166.524C73.319 180.874 77.0973 195.014 83.8258 207.698C84.6384 209.229 85.4952 210.737 86.3895 212.221C86.9074 213.081 88.1253 213.257 88.8442 212.538C90.6686 210.713 92.4912 208.889 94.3156 207.064C98.8042 202.574 103.293 198.084 107.781 193.594C113.461 187.913 119.142 182.23 124.821 176.549C130.219 171.149 135.617 165.749 141.015 160.349C144.657 156.705 148.301 153.06 151.943 149.417C152.643 148.717 153.369 148.035 154.047 147.313C154.73 146.585 154.592 145.679 154.592 144.762V70.403C154.592 68.3906 151.466 68.3872 151.466 70.403H151.464Z" fill="white"/>
<path d="M158.958 42.5643C92.4657 42.5643 38.5638 96.4849 38.5638 163C38.5638 229.515 92.4657 283.436 158.958 283.436C225.45 283.436 279.352 229.515 279.352 163C279.352 96.4849 225.45 42.5643 158.958 42.5643ZM252.72 163C252.72 180.724 247.806 197.299 239.265 211.437L173.975 146.125V70.4031C218.619 77.5924 252.72 116.311 252.72 163ZM143.94 188.613V255.595C126.642 252.809 110.926 245.289 98.1637 234.406L143.94 188.613ZM173.975 188.613L219.752 234.406C206.99 245.289 191.274 252.809 173.975 255.595V188.613ZM143.94 70.4031V146.125L78.6508 211.437C70.1115 197.299 65.1954 180.724 65.1954 163C65.1954 116.313 99.2965 77.5941 143.94 70.4031Z" fill="#020202"/>
<path d="M158.958 40.9996C146.204 41.0167 133.45 42.9814 121.317 46.9228C109.611 50.7262 98.4805 56.312 88.4506 63.4502C78.4412 70.5748 69.5544 79.1597 62.0746 88.9067C54.5914 98.6589 48.631 109.539 44.3963 121.079C40.027 132.985 37.5842 145.584 37.0919 158.254C36.5945 171.065 38.1089 183.98 41.6043 196.317C44.9669 208.19 50.1624 219.561 56.9404 229.873C63.6639 240.102 71.9136 249.329 81.3609 257.113C90.861 264.941 101.475 271.296 112.861 275.97C124.533 280.762 136.941 283.655 149.516 284.633C162.346 285.63 175.353 284.586 187.86 281.551C199.885 278.632 211.473 273.837 222.055 267.421C232.521 261.075 242.046 253.141 250.167 243.982C258.285 234.824 265.046 224.464 270.085 213.306C275.272 201.819 278.638 189.61 280.098 177.092C281.593 164.267 281.021 151.206 278.461 138.552C275.996 126.373 271.616 114.578 265.576 103.723C259.621 93.0185 252.022 83.205 243.162 74.7479C234.326 66.313 224.22 59.1884 213.284 53.7475C202.101 48.1821 190.076 44.3361 177.728 42.4464C171.515 41.4955 165.243 41.0082 158.958 40.9996C156.946 40.9962 156.943 44.1231 158.958 44.1265C171.452 44.1436 183.881 46.0759 195.767 49.939C207.174 53.6452 217.977 59.1186 227.758 66.0591C237.439 72.9297 246.123 81.3033 253.333 90.7368C260.593 100.237 266.453 110.829 270.56 122.062C274.822 133.721 277.241 146.019 277.705 158.423C278.171 170.922 276.706 183.45 273.298 195.485C270.003 207.117 264.915 218.195 258.277 228.295C251.754 238.217 243.731 247.129 234.589 254.702C225.394 262.319 214.987 268.571 203.927 273.077C192.558 277.708 180.476 280.586 168.233 281.518C155.668 282.476 142.971 281.488 130.728 278.495C119.002 275.631 107.761 270.977 97.438 264.72C87.231 258.533 77.9932 250.81 70.0637 241.888C62.1444 232.979 55.5964 222.869 50.6615 212.018C45.6023 200.89 42.2857 188.906 40.9059 176.76C39.487 164.267 39.9912 151.543 42.5021 139.222C44.9312 127.3 49.1881 115.784 55.1177 105.161C60.9162 94.772 68.2564 85.2908 76.8502 77.0671C85.4918 68.7975 95.3666 61.8587 106.068 56.5165C116.951 51.0841 128.679 47.3846 140.693 45.5102C146.734 44.5679 152.849 44.1333 158.959 44.1248C160.971 44.1214 160.975 40.9945 158.959 40.9979L158.958 40.9996Z" fill="white"/>
<path d="M251.157 163C251.139 176.07 248.407 189.113 242.992 201.02C241.488 204.326 239.788 207.538 237.916 210.648C238.733 210.542 239.553 210.437 240.37 210.331C238.204 208.164 236.037 205.996 233.872 203.83C228.669 198.626 223.467 193.422 218.265 188.218C211.974 181.923 205.681 175.63 199.391 169.337C193.955 163.9 188.521 158.464 183.085 153.026C181.297 151.237 179.508 149.448 177.721 147.66C176.883 146.822 176.077 145.919 175.193 145.132C175.154 145.098 175.12 145.058 175.083 145.021C175.236 145.389 175.387 145.759 175.541 146.127V73.4891C175.541 72.5109 175.609 71.5039 175.541 70.5275C175.537 70.4866 175.541 70.444 175.541 70.4031C174.882 70.9057 174.222 71.4084 173.563 71.9111C182.002 73.2795 190.308 75.7997 197.989 79.4089C205.572 82.972 212.691 87.5643 218.997 92.9934C225.309 98.4275 230.879 104.675 235.495 111.545C240.195 118.542 243.919 126.11 246.538 134.076C249.269 142.381 250.799 150.953 251.104 159.655C251.143 160.769 251.162 161.884 251.162 163C251.163 165.012 254.289 165.016 254.287 163C254.277 153.982 253.02 144.953 250.497 136.293C248.07 127.963 244.488 119.949 239.893 112.591C235.34 105.298 229.795 98.6065 223.464 92.7889C217.141 86.9816 210.035 82.0041 202.39 78.095C194.602 74.111 186.267 71.1852 177.684 69.4863C176.59 69.2699 175.493 69.0739 174.394 68.8967C173.41 68.7365 172.417 69.3006 172.417 70.4048V142.541C172.417 143.695 172.378 144.856 172.417 146.007C172.449 146.969 173.1 147.458 173.718 148.074C176.72 151.077 179.721 154.079 182.724 157.084C187.835 162.196 192.947 167.31 198.057 172.422C203.804 178.171 209.55 183.919 215.297 189.668C220.207 194.579 225.116 199.49 230.024 204.399C232.618 206.995 235.214 209.592 237.808 212.187C237.928 212.306 238.045 212.424 238.164 212.543C238.883 213.262 240.101 213.087 240.619 212.226C247.515 200.778 251.913 187.971 253.563 174.714C254.047 170.828 254.282 166.916 254.287 163C254.291 160.988 251.165 160.984 251.162 163H251.157Z" fill="white"/>
<path d="M142.378 188.613V252.881C142.378 253.748 142.361 254.616 142.378 255.483C142.378 255.52 142.378 255.56 142.378 255.597C143.037 255.094 143.697 254.592 144.356 254.089C137.731 253.019 131.226 251.24 124.984 248.776C124.603 248.626 124.225 248.472 123.845 248.317C123.673 248.248 123.501 248.176 123.329 248.104C123.226 248.062 123.123 248.019 123.02 247.975C123.395 248.138 123.07 247.995 122.983 247.958C122.198 247.622 121.417 247.278 120.642 246.92C119.164 246.24 117.702 245.521 116.261 244.766C113.358 243.245 110.537 241.568 107.81 239.751C106.284 238.734 104.787 237.671 103.322 236.565C103.146 236.432 102.971 236.299 102.797 236.166C102.71 236.1 102.622 236.033 102.535 235.965C102.582 236.002 102.63 236.038 102.678 236.076C102.62 236.031 102.562 235.985 102.504 235.941C102.128 235.648 101.755 235.353 101.383 235.055C100.669 234.481 99.9642 233.896 99.2675 233.303V235.515C99.6781 235.104 100.087 234.695 100.497 234.285C101.608 233.174 102.717 232.064 103.828 230.953C105.468 229.312 107.108 227.671 108.749 226.03C110.757 224.021 112.766 222.012 114.776 220.002C116.968 217.808 119.16 215.615 121.353 213.422C123.565 211.209 125.778 208.995 127.991 206.782C130.054 204.718 132.118 202.653 134.181 200.589C135.926 198.844 137.67 197.099 139.414 195.354C140.673 194.095 141.932 192.836 143.189 191.578C143.782 190.985 144.383 190.397 144.969 189.798C144.995 189.772 145.02 189.747 145.046 189.721C145.625 189.142 145.668 188.082 145.046 187.509C144.422 186.937 143.453 186.891 142.835 187.509C142.424 187.92 142.015 188.329 141.605 188.739C140.494 189.85 139.385 190.96 138.275 192.071C136.634 193.712 134.994 195.353 133.353 196.994C131.345 199.003 129.337 201.012 127.327 203.023C125.134 205.216 122.942 207.409 120.75 209.602C118.537 211.815 116.324 214.029 114.111 216.242C112.048 218.306 109.984 220.371 107.921 222.435C106.177 224.18 104.432 225.925 102.688 227.67C101.429 228.929 100.17 230.188 98.9132 231.446C98.3204 232.039 97.7191 232.627 97.1331 233.227C97.1076 233.252 97.082 233.278 97.0565 233.303C96.4943 233.866 96.4109 234.965 97.0565 235.515C102.163 239.865 107.708 243.703 113.609 246.898C119.547 250.112 125.841 252.704 132.324 254.588C136.002 255.657 139.743 256.497 143.523 257.107C144.036 257.19 144.465 257.153 144.886 256.827C145.271 256.529 145.502 256.096 145.502 255.6V191.333C145.502 190.466 145.513 189.598 145.502 188.731C145.502 188.693 145.502 188.654 145.502 188.617C145.502 187.799 144.783 187.015 143.94 187.054C143.094 187.092 142.378 187.741 142.378 188.617V188.613Z" fill="white"/>
<path d="M172.87 189.719L174.1 190.95C175.21 192.061 176.319 193.17 177.43 194.281C179.07 195.922 180.711 197.563 182.351 199.204C184.359 201.213 186.368 203.222 188.378 205.233C190.57 207.426 192.763 209.619 194.955 211.812C197.147 214.005 199.38 216.239 201.593 218.453C203.656 220.516 205.721 222.581 207.783 224.645C209.528 226.39 211.272 228.135 213.016 229.88C214.275 231.139 215.534 232.398 216.791 233.656C217.384 234.249 217.968 234.856 218.571 235.437C218.597 235.462 218.622 235.488 218.648 235.513V233.302C218.006 233.848 217.358 234.387 216.703 234.915C216.418 235.145 216.13 235.374 215.844 235.6C215.672 235.737 215.498 235.871 215.325 236.008C215.262 236.057 215.095 236.19 215.381 235.965C215.265 236.055 215.149 236.144 215.032 236.232C213.749 237.212 212.441 238.16 211.11 239.073C208.409 240.925 205.61 242.636 202.731 244.195C201.268 244.988 199.784 245.739 198.282 246.453C197.544 246.803 196.803 247.142 196.057 247.472C195.701 247.631 195.343 247.786 194.986 247.939C194.9 247.975 194.815 248.014 194.73 248.048C195.123 247.891 194.766 248.033 194.693 248.064C194.486 248.15 194.28 248.236 194.074 248.319C190.996 249.582 187.85 250.678 184.654 251.603C181.012 252.658 177.306 253.486 173.563 254.091C174.222 254.593 174.882 255.096 175.541 255.599V191.331C175.541 190.464 175.551 189.597 175.541 188.729C175.541 188.692 175.541 188.653 175.541 188.615C175.541 187.797 174.822 187.013 173.977 187.052C173.13 187.09 172.415 187.739 172.415 188.615V252.883C172.415 253.75 172.405 254.617 172.415 255.485C172.415 255.522 172.415 255.56 172.415 255.599C172.415 256.095 172.645 256.529 173.032 256.826C173.452 257.151 173.882 257.189 174.394 257.105C181.092 256.023 187.668 254.217 193.974 251.71C200.213 249.231 206.192 246.124 211.776 242.393C214.935 240.281 217.968 237.977 220.861 235.515C221.505 234.966 221.421 233.864 220.861 233.303C220.45 232.893 220.041 232.484 219.631 232.073C218.52 230.962 217.411 229.853 216.301 228.742C214.66 227.101 213.02 225.46 211.379 223.819C209.371 221.81 207.363 219.8 205.353 217.79C203.16 215.597 200.968 213.404 198.776 211.21C196.563 208.997 194.35 206.783 192.137 204.57C190.074 202.506 188.01 200.441 185.947 198.377C184.203 196.632 182.458 194.888 180.714 193.143C179.455 191.883 178.196 190.624 176.939 189.367C176.346 188.774 175.759 188.172 175.159 187.586C175.134 187.56 175.108 187.535 175.083 187.509C174.503 186.93 173.444 186.887 172.871 187.509C172.299 188.133 172.253 189.102 172.871 189.721L172.87 189.719Z" fill="white"/>
<path d="M142.378 70.403V143.037C142.378 144.015 142.31 145.022 142.378 145.999C142.382 146.04 142.378 146.082 142.378 146.123C142.532 145.755 142.683 145.385 142.836 145.017C140.67 147.185 138.503 149.352 136.338 151.518C131.136 156.722 125.933 161.926 120.731 167.131C114.44 173.424 108.148 179.718 101.857 186.011C96.4211 191.449 90.9871 196.885 85.5515 202.322C83.7628 204.111 81.9742 205.901 80.1873 207.688C79.3492 208.527 78.4447 209.331 77.6594 210.217C77.6254 210.256 77.5862 210.29 77.5487 210.328C78.3663 210.433 79.1857 210.539 80.0034 210.645C72.8489 198.768 68.3876 185.328 67.1424 171.51C66.059 159.491 67.2735 147.437 70.7997 135.914C74.0141 125.414 79.1346 115.527 85.8479 106.781C92.3959 98.2486 100.583 90.79 109.689 85.027C119.085 79.0816 129.403 74.9068 140.302 72.654C141.649 72.3763 143.002 72.1292 144.359 71.9077C145.194 71.7731 145.657 70.7353 145.451 69.9838C145.208 69.0977 144.364 68.7569 143.528 68.8916C132.226 70.7234 121.273 74.6341 111.357 80.3614C101.676 85.9523 92.9682 93.2711 85.8087 101.859C78.5401 110.579 72.8472 120.529 69.0553 131.232C65.0591 142.507 63.2568 154.572 63.6997 166.524C64.2329 180.874 68.0111 195.014 74.7397 207.698C75.5523 209.229 76.4091 210.737 77.3034 212.221C77.8212 213.081 79.0392 213.257 79.7581 212.538C81.5824 210.713 83.4051 208.889 85.2295 207.064C89.7181 202.574 94.2066 198.084 98.6952 193.594C104.374 187.913 110.055 182.23 115.735 176.549C121.133 171.149 126.531 165.749 131.929 160.349C135.571 156.705 139.215 153.06 142.857 149.417C143.557 148.717 144.283 148.035 144.961 147.313C145.644 146.585 145.506 145.679 145.506 144.762V70.403C145.506 68.3906 142.38 68.3872 142.38 70.403H142.378Z" fill="white"/>
</g>
<defs>
<clipPath id="clip0_2006_26">
<rect width="253" height="244" fill="white" transform="translate(37 41)"/>
</clipPath>
</defs>
</svg>
