<svg width="305" height="305" viewBox="0 0 305 305" fill="none" xmlns="http://www.w3.org/2000/svg">
<circle cx="152.426" cy="152.53" r="147.979" fill="black" stroke="#1A171A" stroke-width="7.58868"/>
<g clip-path="url(#clip0_2006_27)">
<path d="M152.426 247.92C205.109 247.92 247.816 205.213 247.816 152.531C247.816 99.8483 205.109 57.1409 152.426 57.1409C99.7442 57.1409 57.0368 99.8483 57.0368 152.531C57.0368 205.213 99.7442 247.92 152.426 247.92Z" fill="white"/>
<path d="M58.1472 152.531C58.1603 142.62 59.693 132.76 62.7544 123.331C65.6934 114.282 70.0309 105.713 75.5354 97.9545C80.9911 90.2649 87.6362 83.3725 95.1272 77.6457C102.66 71.8861 111.06 67.242 119.968 63.9846C129.213 60.6036 138.965 58.6881 148.802 58.3197C158.712 57.95 168.649 59.1117 178.191 61.8152C187.413 64.428 196.199 68.4642 204.207 73.7305C212.074 78.9034 219.144 85.267 225.148 92.5198C231.196 99.824 236.157 108.085 239.736 116.869C243.409 125.889 245.687 135.473 246.427 145.183C247.186 155.149 246.401 165.221 244.029 174.932C241.758 184.232 238.066 193.151 233.105 201.339C228.198 209.435 222.075 216.764 215.001 223.054C207.937 229.335 199.922 234.533 191.318 238.447C182.482 242.466 172.972 245.098 163.327 246.194C153.421 247.32 143.333 246.916 133.562 244.925C124.11 242.999 114.978 239.62 106.554 234.917C98.3175 230.318 90.7975 224.493 84.2761 217.677C77.7192 210.823 72.2148 202.99 67.9799 194.503C63.6727 185.87 60.7363 176.569 59.2496 167.038C58.5024 162.241 58.1551 157.385 58.1472 152.532C58.1459 151.103 55.9238 151.101 55.9265 152.532C55.9409 162.625 57.4946 172.718 60.6139 182.321C63.6227 191.585 68.0431 200.393 73.6909 208.33C79.3203 216.242 86.1061 223.27 93.8076 229.182C101.522 235.105 110.129 239.824 119.258 243.176C128.676 246.634 138.643 248.569 148.668 248.958C158.804 249.352 169.02 248.154 178.782 245.388C188.176 242.726 197.17 238.614 205.329 233.249C213.421 227.927 220.721 221.397 226.878 213.92C233.063 206.411 238.087 198.018 241.781 189.019C245.572 179.782 247.865 169.962 248.638 160.011C249.428 149.856 248.603 139.563 246.201 129.664C243.892 120.147 240.098 110.978 235.022 102.603C230.002 94.3182 223.725 86.7825 216.477 80.3545C209.232 73.9292 201.034 68.5813 192.207 64.5937C183.131 60.4944 173.48 57.8316 163.588 56.6778C153.442 55.4938 143.108 55.9437 133.098 57.9711C123.462 59.9221 114.131 63.386 105.543 68.1669C97.0729 72.8807 89.3096 78.8929 82.6198 85.905C75.9471 92.8987 70.3111 100.896 66.0065 109.551C61.6046 118.403 58.5642 127.92 57.0684 137.692C56.3159 142.603 55.933 147.562 55.9265 152.531C55.9238 153.959 58.1459 153.962 58.1472 152.531Z" fill="white"/>
<path d="M87.7783 181.587C93.2695 189.071 100.162 195.398 108.04 200.308C115.754 205.115 124.352 208.554 133.212 210.556C142.135 212.571 151.394 213.203 160.502 212.328C169.749 211.441 178.79 209.077 187.213 205.146C197.435 200.376 206.76 193.316 214.042 184.701C215.092 183.459 216.098 182.179 217.075 180.878C217.701 180.042 217.209 178.719 216.381 178.235C215.393 177.657 214.367 178.091 213.738 178.928C206.992 187.916 198.017 195.271 187.983 200.472C187.011 200.976 186.028 201.457 185.033 201.918C184.549 202.141 184.064 202.36 183.574 202.573C183.472 202.618 183.369 202.662 183.265 202.707C183.276 202.703 182.768 202.919 183.031 202.809C183.294 202.697 182.786 202.911 182.796 202.906C182.64 202.97 182.485 203.035 182.329 203.098C180.276 203.933 178.188 204.678 176.072 205.332C173.953 205.986 171.808 206.55 169.642 207.024C168.573 207.258 167.498 207.47 166.419 207.66C165.893 207.754 165.367 207.841 164.839 207.924C164.561 207.967 164.284 208.009 164.005 208.05C163.893 208.066 163.783 208.081 163.671 208.097C163.523 208.118 163.167 208.167 163.516 208.12C159.108 208.709 154.651 208.938 150.207 208.819C148.011 208.762 145.817 208.618 143.632 208.391C143.071 208.333 142.512 208.268 141.953 208.198C141.841 208.184 141.729 208.171 141.618 208.156C141.621 208.156 141.073 208.084 141.372 208.125C141.67 208.166 141.122 208.089 141.126 208.091C140.958 208.067 140.791 208.043 140.624 208.018C139.51 207.855 138.4 207.67 137.293 207.463C132.958 206.651 128.687 205.5 124.535 204.012C123.506 203.644 122.485 203.254 121.472 202.844C121.213 202.739 120.954 202.632 120.694 202.524C120.627 202.497 120.352 202.38 120.692 202.524C120.563 202.469 120.434 202.415 120.306 202.36C119.767 202.127 119.23 201.889 118.695 201.646C116.712 200.739 114.768 199.751 112.868 198.681C110.947 197.599 109.072 196.433 107.254 195.186C106.357 194.57 105.473 193.935 104.603 193.28C104.492 193.195 104.381 193.111 104.269 193.027C104.194 192.97 103.898 192.742 104.196 192.972C103.975 192.801 103.755 192.628 103.536 192.455C103.1 192.107 102.665 191.755 102.237 191.397C98.8503 188.572 95.7284 185.431 92.9433 182.012C92.6038 181.595 92.2684 181.172 91.9382 180.747C92.1631 181.038 91.9329 180.738 91.8763 180.666C91.7908 180.553 91.704 180.439 91.6198 180.326C91.4488 180.099 91.2804 179.87 91.112 179.641C90.4963 178.802 89.4359 178.383 88.4703 178.948C87.6414 179.432 87.1573 180.745 87.7769 181.591L87.7783 181.587Z" fill="#020202"/>
<path d="M129.35 171.367C135.863 171.367 141.144 157.394 141.144 140.157C141.144 122.921 135.863 108.948 129.35 108.948C122.836 108.948 117.555 122.921 117.555 140.157C117.555 157.394 122.836 171.367 129.35 171.367Z" fill="#020202"/>
<path d="M139.695 140.157C139.693 143.362 139.517 146.567 139.128 149.748C139.107 149.923 139.085 150.098 139.063 150.273C139.053 150.343 139.047 150.412 139.035 150.482C139.103 150.078 139.042 150.435 139.031 150.512C138.978 150.889 138.923 151.265 138.865 151.641C138.756 152.341 138.636 153.04 138.505 153.734C138.25 155.081 137.951 156.421 137.597 157.746C137.273 158.957 136.906 160.157 136.48 161.337C136.288 161.87 136.07 162.392 135.864 162.921C136.043 162.459 135.868 162.909 135.826 163.005C135.775 163.122 135.724 163.239 135.671 163.357C135.558 163.608 135.441 163.856 135.321 164.104C134.888 164.993 134.404 165.86 133.85 166.68C133.733 166.853 133.612 167.026 133.487 167.195C133.427 167.278 133.361 167.357 133.303 167.441C133.607 167.009 133.354 167.373 133.269 167.478C133.004 167.802 132.724 168.114 132.426 168.406C132.298 168.531 132.166 168.653 132.032 168.772C131.966 168.829 131.901 168.885 131.832 168.941C131.799 168.969 131.765 168.995 131.732 169.023C131.519 169.196 132.03 168.802 131.844 168.936C131.566 169.137 131.285 169.328 130.982 169.49C130.838 169.567 130.69 169.633 130.543 169.703C130.394 169.774 130.94 169.545 130.742 169.619C130.699 169.635 130.657 169.652 130.614 169.667C130.53 169.699 130.444 169.728 130.359 169.754C130.217 169.798 130.073 169.836 129.929 169.867C129.856 169.883 129.784 169.895 129.711 169.908C129.435 169.959 130.168 169.86 129.792 169.896C129.484 169.927 129.177 169.919 128.869 169.892C128.567 169.866 129.285 169.962 128.993 169.908C128.913 169.894 128.834 169.879 128.755 169.862C128.596 169.828 128.438 169.785 128.283 169.733C128.204 169.708 128.126 169.681 128.049 169.65C127.726 169.528 128.289 169.762 128.141 169.692C127.985 169.62 127.83 169.548 127.68 169.466C127.378 169.3 127.103 169.1 126.82 168.904C127.259 169.208 126.976 169.025 126.871 168.94C126.797 168.879 126.724 168.816 126.651 168.753C126.503 168.623 126.359 168.487 126.219 168.348C125.928 168.058 125.654 167.751 125.396 167.432C125.321 167.34 125.087 167.015 125.399 167.441C125.338 167.359 125.275 167.278 125.215 167.195C125.078 167.009 124.945 166.819 124.816 166.626C124.549 166.227 124.299 165.818 124.064 165.402C123.811 164.955 123.573 164.5 123.349 164.037C123.24 163.812 123.133 163.584 123.031 163.355C122.978 163.238 122.927 163.121 122.876 163.004C122.844 162.933 122.814 162.862 122.784 162.79C122.666 162.519 122.92 163.121 122.809 162.846C122.356 161.738 121.953 160.614 121.601 159.47C120.802 156.879 120.234 154.217 119.822 151.537C119.77 151.195 119.72 150.853 119.672 150.51C119.662 150.432 119.601 150.074 119.668 150.48C119.654 150.393 119.646 150.306 119.634 150.218C119.606 150.007 119.581 149.797 119.555 149.586C119.463 148.818 119.384 148.048 119.316 147.279C119.176 145.697 119.085 144.112 119.041 142.524C118.949 139.285 119.041 136.038 119.335 132.811C119.404 132.06 119.483 131.311 119.575 130.563C119.596 130.388 119.618 130.213 119.641 130.038C119.651 129.96 119.706 129.6 119.645 130.006C119.655 129.938 119.663 129.868 119.673 129.798C119.726 129.422 119.781 129.046 119.839 128.67C120.058 127.263 120.321 125.863 120.636 124.476C121.189 122.047 121.944 119.71 122.84 117.39C122.661 117.854 122.847 117.375 122.893 117.27C122.949 117.141 123.006 117.012 123.064 116.885C123.177 116.635 123.294 116.386 123.415 116.14C123.635 115.693 123.868 115.251 124.116 114.818C124.348 114.414 124.592 114.017 124.853 113.631C124.982 113.44 125.115 113.251 125.253 113.065C125.331 112.96 125.587 112.679 125.249 113.067C125.328 112.977 125.398 112.879 125.474 112.786C125.728 112.48 125.995 112.184 126.28 111.905C126.408 111.78 126.54 111.658 126.674 111.539C126.74 111.481 126.805 111.426 126.874 111.37C126.913 111.337 126.954 111.305 126.993 111.272C127.168 111.128 126.687 111.5 126.862 111.375C127.153 111.166 127.447 110.966 127.766 110.799C127.903 110.726 128.045 110.664 128.185 110.599C127.645 110.854 128.177 110.609 128.348 110.557C128.491 110.513 128.634 110.475 128.779 110.443C128.851 110.428 128.923 110.416 128.996 110.403C129.29 110.349 128.55 110.45 128.916 110.414C129.239 110.383 129.559 110.395 129.881 110.424C130.065 110.441 129.405 110.349 129.757 110.411C129.83 110.424 129.902 110.438 129.975 110.454C130.134 110.489 130.292 110.533 130.447 110.584C130.518 110.608 130.589 110.633 130.66 110.659C130.678 110.666 130.771 110.716 130.788 110.709C130.794 110.707 130.411 110.542 130.568 110.617C130.723 110.691 130.877 110.762 131.028 110.843C131.176 110.925 131.32 111.012 131.461 111.104C131.537 111.154 131.612 111.204 131.686 111.256C131.799 111.337 132.097 111.596 131.677 111.241C131.962 111.48 132.245 111.717 132.508 111.981C132.791 112.266 133.058 112.565 133.311 112.877C133.349 112.923 133.385 112.972 133.423 113.018C133.556 113.18 133.303 112.861 133.308 112.868C133.371 112.96 133.445 113.048 133.511 113.139C133.654 113.335 133.794 113.535 133.928 113.736C134.466 114.545 134.936 115.398 135.359 116.271C135.474 116.508 135.586 116.748 135.693 116.987C135.751 117.116 135.808 117.245 135.864 117.374C135.886 117.421 135.905 117.469 135.926 117.517C136.026 117.75 135.782 117.169 135.932 117.533C136.149 118.059 136.351 118.592 136.543 119.128C137.417 121.58 138.051 124.115 138.531 126.671C138.665 127.386 138.786 128.101 138.897 128.82C138.952 129.179 139.003 129.539 139.053 129.9C139.09 130.164 139.051 129.866 139.044 129.826C139.061 129.93 139.072 130.035 139.085 130.139C139.111 130.35 139.138 130.56 139.163 130.771C139.346 132.31 139.48 133.854 139.569 135.402C139.66 136.983 139.703 138.567 139.705 140.151C139.705 140.909 140.37 141.635 141.153 141.599C141.937 141.564 142.602 140.963 142.602 140.151C142.598 133.904 141.974 127.566 140.327 121.527C139.674 119.132 138.84 116.769 137.733 114.544C136.866 112.804 135.783 111.087 134.363 109.741C133.087 108.531 131.564 107.687 129.798 107.516C128.262 107.368 126.671 107.936 125.445 108.842C123.874 110.004 122.666 111.554 121.689 113.235C120.492 115.295 119.605 117.548 118.892 119.817C117.079 125.581 116.327 131.702 116.152 137.725C115.966 144.1 116.454 150.565 117.891 156.788C118.485 159.366 119.275 161.888 120.319 164.321C121.146 166.243 122.17 168.08 123.524 169.682C124.608 170.965 125.998 172.067 127.625 172.556C129.234 173.041 130.938 172.784 132.408 172.009C134.009 171.165 135.255 169.74 136.268 168.27C137.538 166.43 138.456 164.351 139.223 162.259C141.231 156.781 142.108 150.872 142.454 145.07C142.552 143.433 142.599 141.793 142.6 140.152C142.6 139.394 141.933 138.668 141.152 138.704C140.366 138.739 139.703 139.34 139.703 140.152L139.695 140.157Z" fill="#020202"/>
<path d="M175.503 171.367C182.017 171.367 187.298 157.394 187.298 140.157C187.298 122.921 182.017 108.948 175.503 108.948C168.989 108.948 163.709 122.921 163.709 140.157C163.709 157.394 168.989 171.367 175.503 171.367Z" fill="#020202"/>
<path d="M185.849 140.157C185.846 143.362 185.67 146.567 185.282 149.748C185.261 149.923 185.239 150.098 185.216 150.273C185.207 150.343 185.2 150.412 185.189 150.482C185.257 150.078 185.195 150.435 185.185 150.512C185.132 150.889 185.077 151.265 185.019 151.641C184.91 152.341 184.79 153.04 184.658 153.734C184.403 155.081 184.103 156.421 183.751 157.746C183.427 158.957 183.06 160.157 182.634 161.337C182.442 161.87 182.223 162.392 182.018 162.921C182.197 162.459 182.022 162.909 181.98 163.005C181.929 163.122 181.877 163.239 181.825 163.357C181.712 163.608 181.594 163.856 181.475 164.104C181.042 164.993 180.558 165.86 180.004 166.68C179.887 166.853 179.766 167.026 179.641 167.195C179.58 167.278 179.516 167.357 179.457 167.441C179.761 167.009 179.508 167.373 179.422 167.478C179.158 167.802 178.878 168.114 178.579 168.406C178.451 168.531 178.32 168.653 178.186 168.772C178.12 168.829 178.054 168.885 177.986 168.941C177.953 168.969 177.919 168.995 177.886 169.023C177.673 169.196 178.183 168.802 177.998 168.936C177.72 169.137 177.438 169.328 177.136 169.49C176.993 169.567 176.844 169.633 176.696 169.703C176.548 169.774 177.094 169.545 176.895 169.619C176.853 169.635 176.811 169.652 176.768 169.667C176.683 169.699 176.598 169.728 176.512 169.754C176.37 169.798 176.227 169.836 176.082 169.867C176.01 169.883 175.937 169.895 175.865 169.908C175.589 169.959 176.322 169.86 175.945 169.896C175.637 169.927 175.331 169.919 175.023 169.892C174.72 169.866 175.439 169.962 175.147 169.908C175.068 169.894 174.988 169.879 174.909 169.862C174.749 169.828 174.592 169.785 174.436 169.733C174.357 169.708 174.28 169.681 174.202 169.65C173.88 169.528 174.443 169.762 174.294 169.692C174.139 169.62 173.984 169.548 173.834 169.466C173.531 169.3 173.256 169.1 172.973 168.904C173.413 169.208 173.13 169.025 173.025 168.94C172.951 168.879 172.877 168.816 172.805 168.753C172.656 168.623 172.513 168.487 172.372 168.348C172.081 168.058 171.808 167.751 171.55 167.432C171.475 167.34 171.241 167.015 171.553 167.441C171.492 167.359 171.429 167.278 171.368 167.195C171.232 167.009 171.099 166.819 170.97 166.626C170.703 166.227 170.453 165.818 170.217 165.402C169.965 164.955 169.726 164.5 169.503 164.037C169.394 163.812 169.287 163.584 169.184 163.355C169.132 163.238 169.081 163.121 169.029 163.004C168.998 162.933 168.967 162.862 168.937 162.79C168.82 162.519 169.074 163.121 168.962 162.846C168.51 161.738 168.107 160.614 167.754 159.47C166.956 156.879 166.388 154.217 165.976 151.537C165.923 151.195 165.873 150.853 165.826 150.51C165.815 150.432 165.755 150.074 165.822 150.48C165.807 150.393 165.799 150.306 165.788 150.218C165.76 150.007 165.735 149.797 165.709 149.586C165.617 148.818 165.538 148.048 165.469 147.279C165.33 145.697 165.239 144.112 165.194 142.524C165.102 139.285 165.194 136.038 165.489 132.811C165.557 132.06 165.636 131.311 165.728 130.563C165.749 130.388 165.772 130.213 165.794 130.038C165.805 129.96 165.86 129.6 165.798 130.006C165.809 129.938 165.817 129.868 165.827 129.798C165.88 129.422 165.935 129.046 165.993 128.67C166.211 127.263 166.474 125.863 166.79 124.476C167.343 122.047 168.098 119.71 168.994 117.39C168.815 117.854 169 117.375 169.046 117.27C169.103 117.141 169.159 117.012 169.217 116.885C169.33 116.635 169.448 116.386 169.569 116.14C169.788 115.693 170.021 115.251 170.27 114.818C170.501 114.414 170.746 114.017 171.007 113.631C171.135 113.44 171.268 113.251 171.407 113.065C171.484 112.96 171.741 112.679 171.403 113.067C171.481 112.977 171.551 112.879 171.628 112.786C171.881 112.48 172.148 112.184 172.434 111.905C172.562 111.78 172.693 111.658 172.827 111.539C172.893 111.481 172.959 111.426 173.027 111.37C173.067 111.337 173.108 111.305 173.147 111.272C173.322 111.128 172.84 111.5 173.015 111.375C173.306 111.166 173.601 110.966 173.919 110.799C174.056 110.726 174.198 110.664 174.339 110.599C173.798 110.854 174.331 110.609 174.502 110.557C174.644 110.513 174.788 110.475 174.932 110.443C175.005 110.428 175.077 110.416 175.149 110.403C175.444 110.349 174.703 110.45 175.069 110.414C175.393 110.383 175.712 110.395 176.035 110.424C176.219 110.441 175.559 110.349 175.911 110.411C175.983 110.424 176.056 110.438 176.127 110.454C176.286 110.489 176.444 110.533 176.599 110.584C176.67 110.608 176.741 110.633 176.812 110.659C176.831 110.666 176.921 110.716 176.94 110.709C176.946 110.707 176.564 110.542 176.72 110.617C176.875 110.691 177.029 110.762 177.181 110.843C177.328 110.925 177.473 111.012 177.613 111.104C177.69 111.154 177.765 111.204 177.838 111.256C177.952 111.337 178.249 111.596 177.829 111.241C178.115 111.48 178.398 111.717 178.661 111.981C178.944 112.266 179.211 112.565 179.463 112.877C179.501 112.923 179.537 112.972 179.575 113.018C179.708 113.18 179.455 112.861 179.461 112.868C179.524 112.96 179.597 113.048 179.663 113.139C179.807 113.335 179.945 113.535 180.08 113.736C180.618 114.545 181.088 115.398 181.512 116.271C181.626 116.508 181.738 116.748 181.846 116.987C181.904 117.116 181.96 117.245 182.017 117.374C182.038 117.421 182.058 117.469 182.079 117.517C182.179 117.75 181.934 117.169 182.084 117.533C182.301 118.059 182.504 118.592 182.696 119.128C183.569 121.58 184.203 124.115 184.683 126.671C184.818 127.386 184.939 128.101 185.049 128.82C185.104 129.179 185.156 129.539 185.206 129.9C185.243 130.164 185.203 129.866 185.197 129.826C185.214 129.93 185.224 130.035 185.237 130.139C185.264 130.35 185.29 130.56 185.315 130.771C185.498 132.31 185.632 133.854 185.721 135.402C185.812 136.983 185.856 138.567 185.857 140.151C185.857 140.909 186.523 141.635 187.305 141.599C188.09 141.564 188.754 140.963 188.754 140.151C188.75 133.904 188.126 127.566 186.479 121.527C185.827 119.132 184.993 116.769 183.885 114.544C183.018 112.804 181.935 111.087 180.516 109.741C179.24 108.531 177.716 107.687 175.951 107.516C174.414 107.368 172.823 107.936 171.597 108.842C170.026 110.004 168.819 111.554 167.841 113.235C166.643 115.295 165.757 117.548 165.044 119.817C163.231 125.581 162.479 131.702 162.304 137.725C162.118 144.1 162.607 150.565 164.043 156.788C164.638 159.366 165.427 161.888 166.473 164.321C167.299 166.243 168.324 168.08 169.678 169.682C170.762 170.965 172.151 172.067 173.779 172.556C175.387 173.041 177.091 172.784 178.562 172.009C180.163 171.165 181.409 169.74 182.422 168.27C183.692 166.43 184.61 164.351 185.377 162.259C187.384 156.781 188.262 150.872 188.608 145.07C188.705 143.433 188.753 141.793 188.754 140.152C188.754 139.394 188.087 138.668 187.305 138.704C186.52 138.739 185.857 139.34 185.857 140.152L185.849 140.157Z" fill="#020202"/>
</g>
<defs>
<clipPath id="clip0_2006_27">
<rect width="193" height="193" fill="white" transform="translate(55.9265 56.0305)"/>
</clipPath>
</defs>
</svg>
