<svg width="205" height="205" viewBox="0 0 205 205" fill="none" xmlns="http://www.w3.org/2000/svg">
<circle cx="102.655" cy="102.144" r="98.5016" fill="black" stroke="#1A171A" stroke-width="7.22947"/>
<g clip-path="url(#clip0_2006_28)">
<path d="M35.2738 103.196C72.2723 72.5053 132.08 72.2931 170.033 100.973L35.2738 103.196Z" fill="#020202"/>
<path d="M37.1291 105.082C37.5751 104.713 38.024 104.347 38.4786 103.984C38.6615 103.838 39.1476 103.434 38.7044 103.803C38.9503 103.597 39.2133 103.408 39.4678 103.213C40.4141 102.49 41.3719 101.786 42.3439 101.1C44.2338 99.7665 46.175 98.5051 48.1535 97.3136C50.1633 96.1045 52.2161 94.9682 54.306 93.9045C55.3381 93.3784 56.3788 92.8727 57.4281 92.3845C57.9227 92.152 58.423 91.9253 58.9205 91.7044C59.1864 91.5852 59.4494 91.469 59.7153 91.3527C59.8325 91.3004 59.9526 91.251 60.0698 91.1987C60.6788 90.9342 59.5409 91.4196 60.1527 91.1638C68.8012 87.5368 77.8614 85.0286 87.1189 83.6568C87.4077 83.6133 87.6993 83.5726 87.988 83.5319C88.1253 83.5115 88.4998 83.4534 87.8708 83.5464C87.9995 83.5261 88.1281 83.5115 88.2568 83.4941C88.8686 83.4127 89.4833 83.3372 90.098 83.2645C91.2616 83.1308 92.4281 83.0116 93.5974 82.9128C95.9675 82.7094 98.3434 82.5786 100.722 82.5176C105.414 82.3984 110.114 82.5525 114.788 82.9855C115.955 83.093 117.121 83.218 118.285 83.3604C118.577 83.3953 118.865 83.4331 119.157 83.4708C119.303 83.4912 120.289 83.5958 119.523 83.5173C120.103 83.5755 120.684 83.683 121.261 83.7731C123.571 84.1306 125.873 84.5549 128.16 85.049C132.743 86.04 137.266 87.3101 141.695 88.8649C143.902 89.6409 146.137 90.4314 148.265 91.4138C147.724 91.1638 148.325 91.4399 148.522 91.5271C148.788 91.6434 149.051 91.7596 149.314 91.8788C149.871 92.1287 150.426 92.3816 150.978 92.6402C152.021 93.1285 153.059 93.6342 154.088 94.1602C158.182 96.2469 162.142 98.6098 165.916 101.252C166.857 101.908 167.783 102.586 168.701 103.277C169.807 104.111 171.677 103.498 172.289 102.321C173.015 100.926 172.529 99.563 171.348 98.6737C163.677 92.8902 155.18 88.3447 146.26 84.8978C137.255 81.419 127.84 79.1986 118.282 78.0302C108.773 76.8677 99.1239 76.8503 89.6091 77.9925C80.0114 79.1463 70.5567 81.3696 61.5279 84.8949C52.6107 88.3738 44.1223 92.9744 36.503 98.8481C35.4594 99.6531 34.4245 100.473 33.4067 101.316C32.3374 102.199 32.4346 104.181 33.4067 105.088C34.5417 106.146 35.9769 106.032 37.1177 105.088L37.1291 105.082Z" fill="white"/>
<path d="M170.033 101.092C133.038 131.782 73.23 131.994 35.2738 103.315L170.033 101.092Z" fill="#020202"/>
<path d="M168.181 99.2055C167.735 99.5746 167.286 99.9408 166.831 100.304C166.648 100.449 166.162 100.853 166.605 100.484C166.359 100.691 166.096 100.88 165.842 101.074C164.896 101.798 163.938 102.501 162.966 103.187C161.076 104.521 159.135 105.782 157.156 106.974C155.146 108.183 153.094 109.319 151.004 110.383C149.972 110.909 148.931 111.415 147.882 111.903C147.387 112.136 146.887 112.362 146.389 112.583C146.123 112.702 145.86 112.819 145.594 112.935C145.477 112.987 145.357 113.037 145.24 113.089C144.631 113.353 145.769 112.868 145.157 113.124C136.509 116.751 127.448 119.259 118.191 120.631C117.902 120.674 117.61 120.715 117.322 120.756C117.184 120.776 116.81 120.834 117.439 120.741C117.31 120.762 117.182 120.776 117.053 120.793C116.441 120.875 115.826 120.95 115.212 121.023C114.048 121.157 112.882 121.276 111.712 121.375C109.342 121.578 106.966 121.709 104.588 121.77C99.896 121.889 95.1958 121.735 90.5213 121.302C89.3548 121.195 88.1884 121.07 87.0247 120.927C86.7331 120.892 86.4444 120.855 86.1528 120.817C86.0069 120.796 85.0206 120.692 85.7868 120.77C85.2064 120.712 84.626 120.605 84.0485 120.514C81.7384 120.157 79.4369 119.733 77.1497 119.239C72.5667 118.248 68.0438 116.978 63.6152 115.423C61.408 114.647 59.1723 113.853 57.0452 112.874C57.5855 113.124 56.9851 112.848 56.7879 112.76C56.522 112.644 56.2589 112.528 55.9959 112.409C55.4384 112.159 54.8838 111.906 54.332 111.647C53.2884 111.159 52.2506 110.653 51.2214 110.127C47.1273 108.041 43.1675 105.678 39.3936 103.036C38.453 102.379 37.5267 101.702 36.609 101.01C35.5025 100.176 33.6327 100.789 33.0209 101.966C32.2947 103.361 32.7808 104.725 33.9615 105.614C41.6322 111.397 50.1292 115.943 59.0493 119.39C68.0552 122.869 77.4699 125.089 87.0276 126.257C96.5367 127.42 106.186 127.437 115.701 126.295C125.298 125.141 134.753 122.918 143.782 119.396C152.699 115.917 161.187 111.316 168.807 105.442C169.85 104.637 170.885 103.818 171.903 102.975C172.972 102.091 172.875 100.109 171.903 99.2026C170.768 98.1447 169.333 98.258 168.192 99.2026L168.181 99.2055Z" fill="white"/>
<path d="M102.655 111.665C108.399 111.665 113.056 106.931 113.056 101.092C113.056 95.2523 108.399 90.5186 102.655 90.5186C96.9106 90.5186 92.2539 95.2523 92.2539 101.092C92.2539 106.931 96.9106 111.665 102.655 111.665Z" fill="#020202"/>
<path d="M94.8785 101.092C94.8785 100.621 94.9099 100.153 94.97 99.6879C94.9385 99.9233 94.9071 100.162 94.8756 100.397C94.9985 99.4699 95.2416 98.5661 95.5961 97.7029C95.5074 97.9151 95.4188 98.1272 95.333 98.3394C95.6847 97.4966 96.1393 96.709 96.6854 95.9824C96.5481 96.1626 96.4109 96.3428 96.2765 96.523C96.8255 95.8051 97.4573 95.1628 98.1635 94.6048C97.9862 94.7443 97.809 94.8838 97.6317 95.0204C98.3464 94.4653 99.1212 94.0032 99.9503 93.6457C99.7416 93.7358 99.5329 93.8259 99.3242 93.9131C100.173 93.5527 101.063 93.3086 101.975 93.1807C101.743 93.2127 101.509 93.2446 101.277 93.2766C102.195 93.1575 103.121 93.1575 104.039 93.2766C103.807 93.2446 103.573 93.2127 103.341 93.1807C104.253 93.3057 105.142 93.5527 105.991 93.9131C105.783 93.823 105.574 93.7329 105.365 93.6457C106.194 94.0032 106.969 94.4653 107.684 95.0204C107.507 94.8809 107.329 94.7414 107.152 94.6048C107.858 95.1628 108.49 95.8051 109.039 96.523C108.902 96.3428 108.765 96.1626 108.63 95.9824C109.176 96.709 109.631 97.4966 109.983 98.3394C109.894 98.1272 109.805 97.9151 109.72 97.7029C110.074 98.5661 110.314 99.4699 110.44 100.397C110.409 100.162 110.377 99.9233 110.346 99.6879C110.466 100.621 110.466 101.562 110.346 102.495C110.377 102.26 110.409 102.022 110.44 101.786C110.317 102.713 110.074 103.617 109.72 104.48C109.808 104.268 109.897 104.056 109.983 103.844C109.631 104.687 109.176 105.474 108.63 106.201C108.768 106.021 108.905 105.841 109.039 105.66C108.49 106.378 107.858 107.021 107.152 107.579C107.329 107.439 107.507 107.3 107.684 107.163C106.969 107.718 106.194 108.18 105.365 108.538C105.574 108.448 105.783 108.357 105.991 108.27C105.142 108.631 104.253 108.875 103.341 109.003C103.573 108.971 103.807 108.939 104.039 108.907C103.121 109.026 102.195 109.026 101.277 108.907C101.509 108.939 101.743 108.971 101.975 109.003C101.063 108.878 100.173 108.631 99.3242 108.27C99.5329 108.36 99.7416 108.45 99.9503 108.538C99.1212 108.18 98.3464 107.718 97.6317 107.163C97.809 107.302 97.9862 107.442 98.1635 107.579C97.4573 107.021 96.8255 106.378 96.2765 105.66C96.4138 105.841 96.551 106.021 96.6854 106.201C96.1393 105.474 95.6847 104.687 95.333 103.844C95.4217 104.056 95.5103 104.268 95.5961 104.48C95.2416 103.617 95.0014 102.713 94.8756 101.786C94.9071 102.022 94.9385 102.26 94.97 102.495C94.9099 102.03 94.8813 101.56 94.8785 101.092C94.8785 100.406 94.5868 99.6908 94.1094 99.2055C93.6548 98.7434 92.9086 98.3946 92.2539 98.4237C91.5763 98.4556 90.873 98.6823 90.3984 99.2055C89.9295 99.7257 89.6265 100.368 89.6293 101.092C89.6379 103.736 90.4184 106.46 91.9451 108.613C92.3683 109.212 92.8171 109.799 93.3232 110.328C93.8321 110.863 94.3982 111.316 94.9785 111.767C96.0078 112.566 97.1628 113.141 98.3779 113.592C99.6187 114.054 100.968 114.278 102.286 114.324C103.59 114.371 104.939 114.196 106.197 113.836C108.63 113.135 110.946 111.674 112.556 109.68C113.025 109.101 113.476 108.5 113.854 107.855C114.231 107.212 114.523 106.529 114.8 105.835C115.303 104.585 115.546 103.254 115.646 101.911C115.844 99.281 115.16 96.5201 113.817 94.2706C112.516 92.0938 110.557 90.2105 108.264 89.1555C107.57 88.8358 106.863 88.5364 106.126 88.3301C105.394 88.1237 104.645 88.0191 103.89 87.929C102.552 87.7663 101.185 87.8912 99.8674 88.1644C97.3915 88.6789 95.0186 90.0535 93.2746 91.9078C91.5248 93.7707 90.2297 96.2033 89.8437 98.7637C89.7265 99.5368 89.6322 100.31 89.6293 101.095C89.6293 101.778 89.9238 102.498 90.3984 102.981C90.853 103.443 91.5992 103.792 92.2539 103.763C93.6805 103.699 94.8727 102.591 94.8785 101.097V101.092Z" fill="white"/>
</g>
<defs>
<clipPath id="clip0_2006_28">
<rect width="140" height="50" fill="white" transform="translate(32.655 77.1437)"/>
</clipPath>
</defs>
</svg>
