<svg width="198" height="199" viewBox="0 0 198 199" fill="none" xmlns="http://www.w3.org/2000/svg">
<circle cx="98.8694" cy="99.6691" r="94.8198" fill="black" stroke="#1A171A" stroke-width="7.90165"/>
<g clip-path="url(#clip0_2020_46)">
<path d="M159.864 94.4663C159.341 88.2556 157.891 82.3097 155.652 76.766C153.517 71.4794 150.665 66.559 147.217 62.126C143.169 56.9202 138.297 52.3857 132.799 48.7177C123.254 42.3489 111.818 38.5923 99.5117 38.4651C99.2959 38.4617 99.0801 38.4591 98.8635 38.4591C98.6468 38.4591 98.425 38.4617 98.2058 38.4651C85.6065 38.5975 73.9194 42.5345 64.2397 49.1828C58.7366 52.9634 53.8826 57.619 49.8789 62.9503C46.4408 67.5286 43.6295 72.6038 41.5731 78.0503C39.3868 83.8398 38.0525 90.047 37.7241 96.5199C37.6708 97.5635 37.6441 98.6139 37.6441 99.6704C37.6441 109.821 40.1158 119.393 44.4892 127.822C54.591 147.29 74.8436 160.642 98.2376 160.877C98.4456 160.88 98.6546 160.882 98.8635 160.882C99.0724 160.882 99.2951 160.879 99.5108 160.876C124.341 160.618 145.628 145.584 154.992 124.147C158.266 116.651 160.082 108.373 160.082 99.6704C160.082 97.9177 160.007 96.1821 159.863 94.4663H159.864Z" fill="#020202"/>
<path d="M160.653 94.4663C159.445 80.4365 153.473 67.1013 143.753 56.8995C134.649 47.344 122.515 40.817 109.499 38.5846C96.3634 36.3315 82.6696 38.3439 70.7805 44.3809C58.734 50.4979 48.8231 60.6173 42.9709 72.7946C36.8213 85.5942 35.2575 100.374 38.5657 114.184C41.3581 125.842 47.6203 136.581 56.3457 144.797C64.5698 152.54 74.8865 157.984 85.9443 160.318C97.2738 162.709 109.251 161.905 120.13 157.922C130.481 154.132 139.755 147.571 146.753 139.052C154.667 129.418 159.54 117.531 160.634 105.106C160.945 101.566 160.944 98.0061 160.653 94.4654C160.57 93.4605 158.992 93.4519 159.075 94.4654C160.147 107.495 157.046 120.639 150.097 131.727C144.417 140.791 136.329 148.264 126.857 153.231C116.999 158.399 105.786 160.695 94.6886 159.949C83.6007 159.204 72.837 155.323 63.7883 148.88C54.7397 142.437 47.5412 133.467 43.1996 123.244C37.8453 110.636 36.9898 96.2766 40.7331 83.1056C44.4127 70.1598 52.5148 58.6101 63.4204 50.7223C73.8592 43.1723 86.6209 39.084 99.5117 39.2533C112.433 39.4227 125.038 43.6984 135.352 51.4951C146.095 59.6167 153.94 71.3487 157.34 84.3753C158.204 87.6839 158.781 91.0588 159.074 94.4654C159.161 95.4694 160.739 95.478 160.652 94.4654L160.653 94.4663Z" fill="white"/>
<path d="M155.28 120.984C149.79 126.948 143.707 132.401 136.953 136.903C130.264 141.362 122.918 144.879 115.092 146.801C111.041 147.796 106.959 148.19 102.813 148.527C97.9573 148.921 93.0474 148.747 88.2321 148.01C79.7199 146.707 71.5095 143.756 64.0041 139.555C56.791 135.515 50.2305 130.342 44.5846 124.306C43.8891 123.562 43.2082 122.805 42.5402 122.036C41.8731 121.268 40.7614 122.387 41.4243 123.152C46.9489 129.509 53.4527 135.026 60.6435 139.416C67.9486 143.876 76.0042 147.188 84.396 148.918C89.2216 149.912 94.1599 150.399 99.0878 150.295C101.474 150.245 103.85 150.02 106.227 149.829C108.301 149.662 110.367 149.383 112.412 148.997C120.482 147.471 128.167 144.22 135.148 139.931C142.181 135.611 148.561 130.254 154.293 124.33C155.004 123.596 155.703 122.851 156.396 122.099C157.083 121.353 155.97 120.235 155.28 120.984Z" fill="white"/>
<path d="M37.9647 100.446C41.0503 104.363 44.6371 107.862 48.5669 110.928C52.035 113.633 55.6347 116.108 59.5121 118.196C67.0776 122.272 75.3499 125.001 83.8286 126.372C92.4224 127.762 101.187 127.798 109.801 126.553C118.539 125.291 127.081 122.67 134.999 118.761C143.861 114.387 151.941 108.352 158.393 100.846C159.168 99.9445 159.918 99.0213 160.645 98.0809C160.907 97.7413 160.97 97.2969 160.645 96.9651C160.376 96.69 159.79 96.629 159.529 96.9651C153.622 104.598 146.141 110.859 137.72 115.553C129.919 119.9 121.394 122.887 112.616 124.501C104.245 126.041 95.6309 126.301 87.1823 125.269C78.8103 124.246 70.557 121.89 62.969 118.198C54.9177 114.28 47.4088 108.823 41.4329 102.137C40.6187 101.226 39.8355 100.289 39.079 99.3299C38.4514 98.533 37.3414 99.6557 37.963 100.446H37.9647Z" fill="white"/>
<path d="M155.095 76.2081C149.858 82.5142 143.617 87.9555 136.623 92.2347C129.512 96.586 121.685 99.709 113.53 101.45C105.06 103.257 96.2344 103.566 87.6586 102.346C79.3296 101.162 71.2155 98.5597 63.7668 94.6485C56.4549 90.8094 49.8135 85.7541 44.1582 79.7376C43.4678 79.0027 42.793 78.2539 42.131 77.4923C41.4638 76.7247 40.3522 77.8439 41.015 78.6081C46.5285 84.9529 53.0942 90.3814 60.3769 94.5831C67.7714 98.8485 75.8993 101.85 84.2971 103.39C93.0362 104.991 102.028 105.051 110.789 103.575C119.172 102.162 127.302 99.2955 134.731 95.166C142.008 91.1206 148.617 85.8529 154.187 79.6654C154.877 78.8987 155.55 78.1181 156.209 77.3247C156.853 76.5493 155.743 75.4275 155.093 76.2089L155.095 76.2081Z" fill="white"/>
<path d="M98.069 79.7685C91.1586 79.7599 84.2747 78.8144 77.6308 76.9078C71.2456 75.0759 65.1286 72.3759 59.4648 68.9048C56.2967 66.9629 53.279 64.7855 50.4376 62.3915C50.0164 62.0373 49.5203 62.1216 49.1988 62.5514C45.6971 67.2294 42.8867 72.3776 40.813 77.8396C40.7107 78.1095 40.8414 78.4061 41.0159 78.6072C46.5293 84.952 53.095 90.3805 60.3778 94.5823C67.7723 98.8476 75.9001 101.849 84.2979 103.389C93.0371 104.99 102.029 105.05 110.79 103.574C119.173 102.161 127.303 99.2946 134.732 95.1642C142.009 91.1189 148.617 85.8512 154.188 79.6637C154.878 78.8969 155.551 78.1164 156.21 77.3229C156.377 77.1209 156.522 76.8252 156.413 76.5553C154.23 71.1759 151.332 66.1549 147.775 61.5671C147.502 61.2147 146.947 61.3161 146.659 61.5671C141.561 66.0096 135.864 69.7498 129.758 72.657C123.525 75.6235 116.865 77.69 110.054 78.8066C106.093 79.4565 102.081 79.7634 98.0682 79.7685C97.0528 79.7703 97.0511 81.3468 98.0682 81.3459C105.304 81.3365 112.539 80.317 119.48 78.2677C126.15 76.2983 132.552 73.3937 138.426 69.6698C141.715 67.5852 144.839 65.2411 147.774 62.6829H146.658C150.034 67.0385 152.818 71.8687 154.89 76.9748C154.958 76.7186 155.025 76.4633 155.093 76.2072C149.856 82.5133 143.616 87.9546 136.622 92.2338C129.51 96.5851 121.683 99.7081 113.529 101.449C105.059 103.257 96.2327 103.565 87.6569 102.345C79.3279 101.161 71.2138 98.5588 63.7651 94.6476C56.4531 90.8086 49.8118 85.7532 44.1565 79.7367C43.4661 79.0018 42.7912 78.253 42.1292 77.4914C42.1972 77.7476 42.2642 78.0029 42.3321 78.2591C44.3551 72.9286 47.1432 67.911 50.5589 63.3474C50.1462 63.4007 49.7327 63.454 49.32 63.5072C54.4783 67.8517 60.1861 71.5257 66.3082 74.3599C72.5876 77.2662 79.2522 79.3147 86.0879 80.3961C90.0504 81.0227 94.0558 81.3408 98.0673 81.3459C99.0827 81.3477 99.0844 79.7703 98.0673 79.7685H98.069Z" fill="white"/>
<path d="M63.8425 48.502C58.231 52.3685 53.2971 57.1101 49.1979 62.5523C49.0044 62.8085 49.0775 63.3028 49.3208 63.5082C54.5686 67.9301 60.3889 71.6565 66.6331 74.5104C73.014 77.4262 79.7835 79.4575 86.7241 80.495C93.9045 81.5678 101.202 81.6151 108.395 80.6395C115.326 79.6999 122.093 77.7726 128.496 74.9608C134.751 72.2135 140.604 68.5963 145.892 64.2733C146.528 63.7532 147.155 63.2228 147.774 62.683C148.122 62.3787 148.021 61.8844 147.774 61.5672C143.673 56.309 138.737 51.7436 133.196 48.0361C132.958 47.8762 132.64 47.9097 132.4 48.0361C124.381 52.2404 115.589 54.968 106.59 55.9901C97.2944 57.0457 87.8168 56.3648 78.7819 53.9304C73.8935 52.6126 69.153 50.7911 64.6368 48.502C63.7333 48.0438 62.9337 49.4046 63.8407 49.8636C72.2059 54.1049 81.3044 56.762 90.6393 57.6835C100.081 58.6153 109.711 57.7617 118.836 55.1562C123.803 53.7379 128.62 51.796 133.196 49.3977H132.4C137.83 53.0313 142.641 57.5322 146.658 62.683V61.5672C141.618 65.9607 135.992 69.6648 129.965 72.5574C123.863 75.4852 117.349 77.5474 110.681 78.701C103.705 79.9071 96.5439 80.085 89.5113 79.2847C82.6825 78.5067 75.9586 76.7411 69.6138 74.1038C63.4427 71.5387 57.6009 68.0994 52.3557 63.9604C51.7074 63.4489 51.0678 62.9254 50.4368 62.3933C50.478 62.7122 50.5193 63.0303 50.5597 63.3492C54.4861 58.1365 59.2644 53.5668 64.6377 49.8645C65.4682 49.2919 64.6807 47.9243 63.8416 48.5028L63.8425 48.502Z" fill="white"/>
<path d="M63.8425 49.8635C67.9623 51.9541 72.2721 53.6776 76.7048 54.9834C81.2399 56.3192 85.9005 57.2132 90.6049 57.68C95.3901 58.1545 100.222 58.1708 105.01 57.7298C109.681 57.3 114.313 56.4473 118.824 55.1605C123.25 53.8977 127.56 52.2206 131.682 50.1721C132.19 49.9194 132.694 49.6615 133.197 49.3976C133.75 49.1071 133.663 48.3463 133.197 48.036C129.273 45.4228 125.055 43.2677 120.644 41.607C116.127 39.9058 111.421 38.7651 106.634 38.159C101.761 37.5418 96.813 37.5083 91.9323 38.0585C87.1393 38.5983 82.416 39.6771 77.8775 41.3147C73.4499 42.9118 69.202 45.0067 65.2499 47.5641C64.7761 47.8701 64.3076 48.1838 63.8425 48.5028C63.4917 48.7435 63.3335 49.1956 63.5596 49.5816C63.7634 49.9289 64.2861 50.1068 64.6386 49.8644C68.4154 47.2752 72.4784 45.0918 76.7427 43.4199C81.1127 41.7075 85.6795 40.5049 90.3255 39.8396C95.1107 39.1545 99.9948 39.0685 104.805 39.5318C109.482 39.9823 114.106 40.9983 118.549 42.5242C122.905 44.0199 127.077 46.0271 130.978 48.4761C131.456 48.777 131.931 49.0847 132.401 49.3976V48.036C128.434 50.118 124.286 51.8372 120.006 53.1627C115.638 54.5158 111.141 55.4734 106.598 55.9891C101.905 56.5221 97.1629 56.6124 92.4533 56.2625C87.8409 55.9204 83.2663 55.1373 78.8 53.9347C74.4403 52.7604 70.189 51.1908 66.1199 49.2343C65.6238 48.9953 65.1304 48.7512 64.6395 48.5019C64.2595 48.3094 63.784 48.4022 63.5605 48.7847C63.355 49.1363 63.4625 49.6701 63.8433 49.8635H63.8425Z" fill="white"/>
<path d="M52.9429 99.6695C52.9506 93.3651 53.6728 87.0727 55.1902 80.9514C56.5907 75.302 58.6481 69.8143 61.4198 64.6927C63.9947 59.9364 67.1714 55.5017 70.9868 51.6601C74.5152 48.1073 78.5791 45.0883 83.0935 42.9049C87.46 40.7937 92.2427 39.5267 97.0916 39.2903C101.967 39.0521 106.837 39.8318 111.41 41.5304C116.044 43.2505 120.32 45.9119 124.047 49.144C128.042 52.6082 131.447 56.712 134.257 61.1846C137.314 66.05 139.677 71.3297 141.38 76.8141C143.208 82.699 144.288 88.8048 144.646 94.9545C145.016 101.325 144.649 107.75 143.48 114.026C142.396 119.848 140.645 125.566 138.159 130.945C135.848 135.943 132.922 140.683 129.333 144.866C126.023 148.724 122.165 152.121 117.793 154.729C113.597 157.233 108.966 158.964 104.13 159.704C99.332 160.438 94.3783 160.138 89.6928 158.886C84.9359 157.616 80.4928 155.375 76.5252 152.473C72.359 149.426 68.7275 145.63 65.6987 141.459C62.3887 136.9 59.7347 131.867 57.7436 126.6C55.6046 120.944 54.1818 115.008 53.4802 109.003C53.1183 105.905 52.9446 102.788 52.9403 99.6695C52.9395 98.6543 51.3619 98.6525 51.3627 99.6695C51.3705 106.108 52.1167 112.554 53.6668 118.806C55.1051 124.609 57.2415 130.258 60.0958 135.515C62.7472 140.4 66.046 144.968 69.9792 148.904C73.621 152.549 77.8354 155.67 82.4934 157.89C87.0457 160.061 91.9753 161.366 97.0168 161.622C102.041 161.877 107.114 161.079 111.829 159.329C116.637 157.545 121.042 154.839 124.932 151.508C129.082 147.956 132.616 143.701 135.532 139.09C138.669 134.126 141.095 128.713 142.85 123.114C144.741 117.077 145.844 110.793 146.218 104.48C146.605 97.9657 146.206 91.4017 145.019 84.9847C143.91 78.9906 142.08 73.1332 139.522 67.599C137.142 62.4508 134.1 57.6 130.398 53.2985C126.984 49.3323 122.974 45.8422 118.463 43.1731C114.152 40.6218 109.368 38.8321 104.406 38.0928C99.387 37.345 94.2519 37.6132 89.3437 38.9137C84.4639 40.2066 79.8635 42.4906 75.7901 45.4606C71.4305 48.6385 67.664 52.542 64.4796 56.8891C61.0708 61.5431 58.3747 66.6921 56.3165 72.075C54.0941 77.886 52.6618 83.9755 51.9259 90.1501C51.5493 93.3092 51.3679 96.4889 51.3645 99.6695C51.3636 100.685 52.9412 100.686 52.942 99.6695H52.9429Z" fill="white"/>
<path d="M74.4094 99.6695C74.418 87.9014 75.6801 76.0104 78.9685 64.6833C80.2762 60.1789 81.9131 55.7442 84.1252 51.6C85.8326 48.4005 87.8908 45.3093 90.5946 42.862C92.6493 41.0027 95.2277 39.525 97.9358 39.2878C100.655 39.0496 103.201 39.9471 105.446 41.5107C108.25 43.4629 110.42 46.2687 112.197 49.1492C114.514 52.9066 116.253 57.0009 117.66 61.1761C121.317 72.0227 122.887 83.5621 123.244 94.97C123.623 107.024 122.659 119.233 119.751 130.958C118.568 135.731 117.06 140.456 114.996 144.927C113.377 148.435 111.423 151.876 108.831 154.764C106.861 156.958 104.44 158.91 101.59 159.711C99.0775 160.417 96.4425 160.1 94.0971 158.918C91.2566 157.488 88.9697 155.109 87.117 152.564C84.6505 149.175 82.7788 145.362 81.2623 141.466C77.2448 131.144 75.3903 119.986 74.6983 108.971C74.504 105.875 74.4111 102.773 74.4085 99.6695C74.4085 98.6543 72.8301 98.6526 72.8309 99.6695C72.8395 111.744 74.1549 123.985 77.5973 135.588C78.9591 140.179 80.6725 144.707 82.968 148.918C84.7622 152.209 86.958 155.415 89.8088 157.886C92.1008 159.872 94.8322 161.344 97.8885 161.625C100.798 161.893 103.679 160.93 106.071 159.309C109.037 157.298 111.36 154.452 113.268 151.449C115.712 147.603 117.536 143.368 119.015 139.068C122.837 127.959 124.453 116.076 124.82 104.37C125.205 92.0594 124.194 79.5666 121.181 67.6025C119.952 62.7191 118.365 57.9052 116.228 53.339C114.526 49.7002 112.443 46.1629 109.707 43.199C107.591 40.9055 104.97 38.9147 101.919 38.0843C99.0749 37.3106 96.1106 37.6932 93.4755 38.974C90.4811 40.4293 88.0782 42.8938 86.0965 45.5191C83.5019 48.9558 81.5735 52.8645 79.9796 56.8496C75.7626 67.3928 73.8609 78.8669 73.1336 90.1528C72.9298 93.3213 72.8327 96.4958 72.8301 99.6713C72.8301 100.686 74.4068 100.688 74.4077 99.6713L74.4094 99.6695Z" fill="white"/>
<path d="M97.2798 38.6577V159.689C97.2798 160.704 98.8574 160.705 98.8574 159.689V158.176C98.8574 157.16 97.2798 157.159 97.2798 158.176V159.689C97.2798 160.704 98.8574 160.705 98.8574 159.689V38.6577C98.8574 37.6425 97.2798 37.6408 97.2798 38.6577Z" fill="white"/>
<path d="M160.653 94.4663C159.445 80.4365 153.473 67.1013 143.753 56.8995C134.649 47.344 122.515 40.817 109.499 38.5846C96.3634 36.3315 82.6696 38.3439 70.7805 44.3809C58.734 50.4979 48.8231 60.6173 42.9709 72.7946C36.8213 85.5942 35.2575 100.374 38.5657 114.184C41.3581 125.842 47.6203 136.581 56.3457 144.797C64.5698 152.54 74.8865 157.984 85.9443 160.318C97.2738 162.709 109.251 161.905 120.13 157.922C130.481 154.132 139.755 147.571 146.753 139.052C154.667 129.418 159.54 117.531 160.634 105.106C160.945 101.566 160.944 98.0061 160.653 94.4654C160.57 93.4605 158.992 93.4519 159.075 94.4654C160.147 107.495 157.046 120.639 150.097 131.727C144.417 140.791 136.329 148.264 126.857 153.231C116.999 158.399 105.786 160.695 94.6886 159.949C83.6007 159.204 72.837 155.323 63.7883 148.88C54.7397 142.437 47.5412 133.467 43.1996 123.244C37.8453 110.636 36.9898 96.2766 40.7331 83.1056C44.4127 70.1598 52.5148 58.6101 63.4204 50.7223C73.8592 43.1732 86.6209 39.084 99.5117 39.2533C112.433 39.4227 125.038 43.6984 135.352 51.4951C146.095 59.6167 153.94 71.3487 157.34 84.3753C158.204 87.6839 158.781 91.0588 159.074 94.4654C159.161 95.4694 160.739 95.478 160.652 94.4654L160.653 94.4663Z" fill="white"/>
</g>
<defs>
<clipPath id="clip0_2020_46">
<rect width="124" height="124" fill="white" transform="translate(36.8694 37.6691)"/>
</clipPath>
</defs>
</svg>
