<svg width="1920" height="2239" viewBox="0 0 1920 2239" fill="none" xmlns="http://www.w3.org/2000/svg">
<path opacity="0.04" d="M1404.98 591.195L1404.98 591.201L1404.99 591.207L1572.51 776.898C1612.15 820.833 1625.22 882.632 1606.76 938.85L1528.73 1176.46L1528.73 1176.47L1528.73 1176.47L1451.67 1414.4C1433.44 1470.7 1386.46 1512.91 1328.54 1525.03L1083.75 1576.26L1083.74 1576.27L1083.74 1576.27L839.16 1628.5C781.294 1640.86 721.241 1621.28 681.785 1577.18L515.022 1390.8L515.017 1390.8L515.011 1390.79L347.486 1205.1C307.85 1161.17 294.783 1099.37 313.244 1043.15L391.27 805.54L391.273 805.532L391.275 805.525L468.326 567.598C486.556 511.304 533.543 469.089 591.46 456.967L836.248 405.735L836.256 405.733L836.264 405.732L1080.84 353.496C1138.71 341.137 1198.76 360.721 1238.22 404.818L1404.98 591.195Z" stroke="white" stroke-width="7.90165"/>
<path opacity="0.2" d="M528.6 1406.2L683.319 1577.68C721.101 1619.56 779.735 1642.47 834.6 1629.4V1629.4" stroke="white" stroke-width="7.90165"/>
<path opacity="0.04" d="M1595.25 420.249L1595.26 420.255L1861.06 714.878C1901.17 759.338 1914.39 821.878 1895.71 878.77L1771.91 1255.77L1771.91 1255.77L1649.66 1633.28C1631.21 1690.24 1583.66 1732.96 1525.05 1745.23L1136.66 1826.52L1136.65 1826.52L748.601 1909.4C690.041 1921.9 629.269 1902.09 589.34 1857.46L324.751 1561.75L324.745 1561.74L58.9446 1267.12C18.8335 1222.66 5.61054 1160.12 24.2925 1103.23L148.091 726.232L148.093 726.225L270.344 348.723C288.793 291.756 336.342 249.034 394.952 236.768L783.341 155.482L783.348 155.48L1171.4 72.6014C1229.96 60.0945 1290.73 79.913 1330.66 124.538L1595.25 420.249Z" stroke="white" stroke-width="3.95082"/>
<path opacity="0.2" d="M148.2 726.999L269.311 349.729C287.907 291.803 336.218 248.354 395.785 235.984L784.8 155.199" stroke="white" stroke-width="3.95082"/>
</svg>
