<svg width="49" height="49" viewBox="0 0 49 49" fill="none" xmlns="http://www.w3.org/2000/svg">
<path d="M44.8002 5.7C44.8002 5.03726 44.2629 4.5 43.6002 4.5H6.40017C5.07468 4.5 4.00017 5.57452 4.00017 6.9V44.1C4.00017 44.7627 4.53743 45.3 5.20017 45.3H43.6002C44.2629 45.3 44.8002 44.7627 44.8002 44.1V5.7Z" fill="#313131"/>
<circle cx="3.6" cy="3.6" r="3.6" transform="matrix(-1 0 0 1 34.0001 15.2998)" fill="#D9D9D9"/>
<circle cx="3.6" cy="3.6" r="3.6" transform="matrix(-1 0 0 1 22.0001 15.2998)" fill="#D9D9D9"/>
<circle cx="3.6" cy="3.6" r="3.6" transform="matrix(-1 0 0 1 34.0001 27.2998)" fill="#D9D9D9"/>
<circle cx="3.6" cy="3.6" r="3.6" transform="matrix(-1 0 0 1 22.0001 27.2998)" fill="#D9D9D9"/>
<path d="M17.456 2.0999C17.1377 2.0999 16.8325 2.22633 16.6075 2.45137L15.7589 1.60285L16.6075 2.45137L1.95162 17.1072C1.72657 17.3323 1.60015 17.6375 1.60015 17.9557V46.4999C1.60015 47.1626 2.1374 47.6999 2.80014 47.6999H46.0001C46.6629 47.6999 47.2001 47.1626 47.2001 46.4999V3.2999C47.2001 2.63716 46.6629 2.0999 46.0001 2.0999H17.456Z" stroke="white" stroke-width="2.4"/>
</svg>
