<svg width="138" height="138" viewBox="0 0 138 138" fill="none" xmlns="http://www.w3.org/2000/svg">
<g clip-path="url(#clip0_2_6919)">
<path d="M68.6 137.112C105.996 137.112 136.312 106.796 136.312 69.4002C136.312 32.004 105.996 1.68835 68.6 1.68835C31.2038 1.68835 0.888153 32.004 0.888153 69.4002C0.888153 106.796 31.2038 137.112 68.6 137.112Z" fill="white"/>
<path d="M1.67634 69.4003C1.68568 62.3654 2.77364 55.3661 4.94674 48.6731C7.033 42.25 10.112 36.1668 14.0192 30.6598C17.892 25.2013 22.6089 20.3088 27.9264 16.2437C33.2737 12.1552 39.2364 8.85865 45.5596 6.5464C52.1219 4.14637 59.0447 2.78666 66.0272 2.52518C73.062 2.26276 80.1155 3.08736 86.8888 5.00646C93.4352 6.86112 99.6716 9.72622 105.356 13.4645C110.941 17.1364 115.959 21.6536 120.221 26.802C124.514 31.9868 128.036 37.8505 130.576 44.0859C133.183 50.4885 134.801 57.2917 135.326 64.1846C135.864 71.2586 135.307 78.4083 133.623 85.3021C132.011 91.9036 129.391 98.2343 125.869 104.047C122.386 109.794 118.04 114.996 113.018 119.461C108.004 123.919 102.314 127.609 96.2069 130.387C89.9351 133.24 83.1842 135.109 76.338 135.887C69.306 136.686 62.1451 136.4 55.2093 134.986C48.4994 133.618 42.0175 131.22 36.0379 127.882C30.191 124.617 24.853 120.483 20.2239 115.644C15.5695 110.779 11.6622 105.219 8.65606 99.1943C5.59858 93.0663 3.51419 86.4639 2.45892 79.698C1.92849 76.2931 1.68195 72.8462 1.67634 69.4012C1.67541 68.387 0.0981095 68.3851 0.0999772 69.4012C0.11025 76.5658 1.21315 83.7304 3.42734 90.5467C5.56309 97.123 8.70088 103.375 12.71 109.009C16.706 114.626 21.5229 119.614 26.9897 123.811C32.4659 128.015 38.5753 131.365 45.0554 133.745C51.7409 136.199 58.8159 137.572 65.9319 137.849C73.1274 138.128 80.3788 137.278 87.3081 135.314C93.9768 133.425 100.361 130.506 106.153 126.698C111.897 122.92 117.079 118.284 121.449 112.977C125.839 107.647 129.406 101.69 132.028 95.301C134.719 88.7444 136.346 81.774 136.895 74.7102C137.456 67.5017 136.87 60.1951 135.165 53.1687C133.526 46.4131 130.833 39.9041 127.23 33.9591C123.666 28.0786 119.211 22.7294 114.066 18.1665C108.923 13.6055 103.104 9.80933 96.8382 6.97878C90.3955 4.06886 83.5446 2.17871 76.5229 1.35971C69.3209 0.519232 61.9854 0.838614 54.8796 2.2777C48.04 3.66262 41.4161 6.12149 35.3198 9.51516C29.3076 12.8612 23.7968 17.129 19.0481 22.1065C14.3115 27.0709 10.3109 32.7479 7.25526 38.8918C4.13054 45.1748 1.97238 51.9304 0.910573 58.8672C0.376402 62.3533 0.104647 65.873 0.0999772 69.4003C0.0981095 70.4144 1.67541 70.4163 1.67634 69.4003Z" fill="white"/>
<path d="M22.7098 90.0256C26.6078 95.3384 31.5003 99.8294 37.0923 103.315C42.5685 106.727 48.6713 109.168 54.9609 110.589C61.2944 112.02 67.8669 112.468 74.3321 111.847C80.8962 111.218 87.3137 109.54 93.2933 106.749C100.549 103.363 107.169 98.352 112.338 92.2361C113.083 91.3545 113.797 90.4459 114.49 89.5223C114.935 88.9293 114.585 87.9898 113.998 87.6461C113.297 87.2362 112.568 87.5444 112.122 88.1383C107.333 94.5185 100.962 99.7397 93.8396 103.431C93.1495 103.789 92.4519 104.131 91.7458 104.458C91.4022 104.616 91.0576 104.771 90.7102 104.923C90.6374 104.954 90.5645 104.986 90.4907 105.018C90.4982 105.015 90.1377 105.168 90.3245 105.09C90.5113 105.01 90.1508 105.163 90.1573 105.159C90.0471 105.205 89.937 105.25 89.8258 105.295C88.369 105.888 86.8869 106.417 85.3844 106.881C83.8808 107.345 82.3577 107.746 80.8206 108.082C80.0613 108.248 79.2984 108.399 78.5326 108.534C78.159 108.6 77.7855 108.662 77.411 108.721C77.214 108.752 77.0169 108.781 76.8189 108.81C76.7396 108.822 76.6611 108.833 76.5817 108.844C76.4771 108.859 76.2241 108.893 76.4715 108.86C73.3431 109.278 70.1792 109.441 67.0246 109.357C65.4659 109.316 63.9082 109.214 62.3571 109.052C61.9593 109.011 61.5624 108.965 61.1655 108.916C61.0861 108.906 61.0067 108.896 60.9273 108.886C60.9301 108.886 60.5407 108.835 60.7527 108.864C60.9647 108.893 60.5753 108.838 60.5781 108.839C60.4595 108.822 60.3409 108.806 60.2223 108.788C59.4313 108.672 58.6431 108.54 57.8577 108.394C54.7806 107.818 51.7484 107.001 48.8011 105.944C48.0708 105.683 47.3461 105.406 46.6271 105.115C46.4431 105.04 46.2591 104.965 46.0751 104.888C46.0275 104.868 45.8323 104.785 46.0733 104.888C45.9818 104.849 45.8902 104.811 45.7996 104.771C45.4168 104.606 45.0357 104.437 44.6557 104.264C43.2483 103.621 41.8681 102.92 40.5196 102.16C39.1561 101.392 37.8254 100.564 36.5348 99.679C35.8979 99.242 35.2703 98.7909 34.653 98.3258C34.5736 98.2661 34.4952 98.2063 34.4158 98.1465C34.3626 98.1064 34.1525 97.9439 34.3635 98.1073C34.2066 97.9859 34.0507 97.8636 33.8957 97.7403C33.5856 97.4938 33.2774 97.2435 32.973 96.9895C30.5692 94.9845 28.3532 92.7544 26.3762 90.3273C26.1352 90.0312 25.8971 89.7315 25.6627 89.4298C25.8224 89.6362 25.659 89.4233 25.6188 89.3719C25.5581 89.2916 25.4965 89.2113 25.4367 89.131C25.3153 88.9694 25.1958 88.8069 25.0762 88.6444C24.6392 88.0486 23.8865 87.7517 23.201 88.1523C22.6127 88.496 22.269 89.428 22.7089 90.0284L22.7098 90.0256Z" fill="#020202"/>
<path d="M52.219 82.7712C56.8428 82.7712 60.5911 72.8525 60.5911 60.6171C60.5911 48.3817 56.8428 38.463 52.219 38.463C47.5952 38.463 43.8469 48.3817 43.8469 60.6171C43.8469 72.8525 47.5952 82.7712 52.219 82.7712Z" fill="#020202"/>
<path d="M59.563 60.6172C59.5611 62.8921 59.436 65.167 59.1605 67.425C59.1455 67.5493 59.1297 67.6735 59.1138 67.7977C59.1072 67.8472 59.1026 67.8967 59.0942 67.9461C59.1427 67.6595 59.0988 67.9125 59.0914 67.9676C59.054 68.2347 59.0148 68.5018 58.9737 68.7689C58.8962 69.2657 58.8112 69.7616 58.7178 70.2547C58.5366 71.2109 58.3247 72.1616 58.0734 73.102C57.8437 73.9621 57.5832 74.8138 57.2806 75.6515C57.1442 76.0297 56.9892 76.4004 56.8435 76.7758C56.9706 76.4481 56.8463 76.7674 56.8165 76.8356C56.78 76.9187 56.7436 77.0018 56.7063 77.085C56.626 77.2633 56.5428 77.4398 56.4579 77.6154C56.1506 78.2467 55.807 78.8621 55.4138 79.4439C55.3307 79.5672 55.2448 79.6895 55.156 79.81C55.1131 79.8688 55.0664 79.9248 55.0253 79.9846C55.241 79.6774 55.0617 79.9361 55.001 80.0108C54.8133 80.2405 54.6144 80.4618 54.4024 80.6691C54.3118 80.7579 54.2184 80.8447 54.1232 80.9288C54.0765 80.9698 54.0298 81.0091 53.9812 81.0492C53.9579 81.0688 53.9336 81.0875 53.9103 81.1071C53.759 81.2304 54.1213 80.9502 53.9897 81.0455C53.7926 81.1884 53.5928 81.3238 53.378 81.4386C53.2752 81.4937 53.1707 81.5404 53.0661 81.5899C52.9605 81.6404 53.3481 81.4779 53.2071 81.5302C53.1772 81.5414 53.1473 81.5535 53.1165 81.5647C53.0567 81.5871 52.996 81.6077 52.9353 81.6263C52.8345 81.6572 52.7327 81.6842 52.6299 81.7067C52.5786 81.7179 52.5272 81.7263 52.4759 81.7356C52.2797 81.772 52.7999 81.7011 52.5328 81.7272C52.3143 81.7487 52.0967 81.7431 51.8782 81.7244C51.6634 81.7057 52.1733 81.7739 51.966 81.7356C51.909 81.7253 51.853 81.7151 51.7969 81.7029C51.6839 81.6786 51.5719 81.6478 51.4617 81.6114C51.4056 81.5937 51.3505 81.5741 51.2955 81.5526C51.0667 81.4657 51.4663 81.632 51.3608 81.5825C51.2506 81.5311 51.1404 81.4797 51.034 81.4218C50.8192 81.3042 50.624 81.1622 50.4232 81.0231C50.7351 81.2388 50.5343 81.109 50.4596 81.0483C50.4073 81.0053 50.355 80.9605 50.3037 80.9157C50.1982 80.8232 50.0964 80.727 49.9964 80.628C49.7901 80.4226 49.5958 80.2041 49.4128 79.9781C49.3595 79.9127 49.1933 79.682 49.4146 79.9846C49.3717 79.9258 49.3269 79.8688 49.2839 79.81C49.1868 79.6774 49.0925 79.5429 49.0009 79.4056C48.8114 79.1227 48.6339 78.8322 48.4668 78.5371C48.2875 78.2196 48.1184 77.8965 47.9597 77.5678C47.8822 77.4081 47.8065 77.2465 47.7337 77.084C47.6963 77.0009 47.6599 76.9178 47.6235 76.8347C47.6011 76.7843 47.5796 76.7338 47.5581 76.6825C47.475 76.4901 47.6552 76.9178 47.5759 76.7226C47.2546 75.9363 46.9688 75.1378 46.7186 74.3263C46.1517 72.4866 45.7483 70.5974 45.456 68.6951C45.4186 68.4523 45.3831 68.2095 45.3495 67.9658C45.3421 67.9107 45.2991 67.6566 45.3467 67.9443C45.3365 67.8826 45.3308 67.821 45.3224 67.7584C45.3028 67.609 45.2851 67.4596 45.2664 67.3102C45.201 66.7648 45.145 66.2185 45.0964 65.6722C44.9975 64.5497 44.933 63.4244 44.9013 62.2972C44.8359 59.998 44.9013 57.6932 45.1105 55.4025C45.159 54.8692 45.215 54.3379 45.2804 53.8065C45.2954 53.6823 45.3112 53.5581 45.3271 53.4339C45.3346 53.3788 45.3738 53.1229 45.3299 53.4115C45.3374 53.3629 45.343 53.3134 45.3505 53.2639C45.3878 52.9968 45.427 52.7297 45.4681 52.4627C45.6231 51.4643 45.8099 50.4707 46.034 49.4855C46.4263 47.7616 46.9623 46.103 47.5983 44.4557C47.4713 44.7853 47.6029 44.4454 47.6356 44.3707C47.6758 44.2792 47.7159 44.1877 47.757 44.0971C47.8373 43.9196 47.9205 43.7431 48.0064 43.5685C48.1623 43.251 48.3276 42.9372 48.5041 42.63C48.6685 42.3433 48.8422 42.0613 49.0271 41.7876C49.1186 41.6522 49.2129 41.5177 49.311 41.3861C49.3661 41.3114 49.5482 41.1115 49.3082 41.387C49.3642 41.3235 49.4137 41.2535 49.4679 41.1881C49.6481 40.9705 49.8377 40.7604 50.0403 40.5624C50.1309 40.4737 50.2243 40.3868 50.3196 40.3028C50.3663 40.2617 50.4129 40.2225 50.4615 40.1823C50.4895 40.159 50.5185 40.1366 50.5465 40.1132C50.6707 40.0105 50.3289 40.2748 50.4531 40.186C50.6595 40.0376 50.8687 39.8956 51.0947 39.777C51.1918 39.7257 51.2926 39.6818 51.3926 39.6351C51.0088 39.8162 51.387 39.6425 51.5084 39.6052C51.6092 39.5744 51.711 39.5473 51.8137 39.5249C51.8651 39.5137 51.9165 39.5053 51.9678 39.4959C52.177 39.4576 51.6513 39.5295 51.9109 39.5043C52.1406 39.4819 52.3675 39.4903 52.5963 39.5109C52.7271 39.523 52.2583 39.4576 52.5085 39.5015C52.5599 39.5109 52.6113 39.5211 52.6626 39.5323C52.7756 39.5576 52.8877 39.5884 52.9979 39.6248C53.0483 39.6416 53.0987 39.6593 53.1492 39.678C53.1622 39.6827 53.2276 39.7182 53.2398 39.7135C53.2444 39.7116 52.9727 39.5949 53.0838 39.6481C53.194 39.7004 53.3033 39.7509 53.4107 39.8088C53.5152 39.8667 53.618 39.9283 53.7179 39.9937C53.7721 40.0292 53.8253 40.0646 53.8776 40.102C53.9579 40.159 54.169 40.3429 53.871 40.0908C54.0737 40.2608 54.2745 40.4289 54.4613 40.6166C54.662 40.8183 54.8516 41.0312 55.0309 41.2525C55.058 41.2852 55.0832 41.3198 55.1103 41.3524C55.2046 41.4673 55.0253 41.2413 55.029 41.246C55.0739 41.3114 55.1262 41.3739 55.1729 41.4384C55.2746 41.5775 55.3736 41.7195 55.4689 41.8623C55.8508 42.4367 56.1842 43.0418 56.4849 43.6619C56.5662 43.83 56.6456 44 56.7221 44.1699C56.7632 44.2614 56.8034 44.353 56.8435 44.4445C56.8585 44.4781 56.8725 44.5117 56.8874 44.5463C56.9584 44.7116 56.7847 44.2988 56.8912 44.5575C57.0453 44.931 57.1891 45.3092 57.3254 45.6893C57.9455 47.43 58.3956 49.2296 58.7365 51.0441C58.8317 51.5512 58.9177 52.0592 58.9961 52.5691C59.0353 52.8241 59.0717 53.0799 59.1072 53.3358C59.1334 53.5235 59.1054 53.3115 59.1007 53.2835C59.1128 53.3573 59.1203 53.432 59.1296 53.5058C59.1483 53.6552 59.167 53.8046 59.1847 53.954C59.3146 55.0467 59.4098 56.143 59.4733 57.2412C59.5378 58.3637 59.5686 59.4881 59.5695 60.6125C59.5695 61.1504 60.042 61.6659 60.5977 61.6407C61.1543 61.6155 61.6259 61.1887 61.6259 60.6125C61.6231 56.1785 61.1804 51.6791 60.0112 47.3927C59.548 45.6921 58.956 44.0149 58.1696 42.4357C57.5542 41.2002 56.7856 39.9815 55.778 39.0262C54.8722 38.167 53.7907 37.5684 52.5375 37.447C51.4467 37.3415 50.3177 37.7449 49.4473 38.3884C48.3323 39.213 47.475 40.3131 46.7811 41.5065C45.9313 42.969 45.3019 44.5677 44.7957 46.1787C43.5089 50.2699 42.9747 54.6152 42.8505 58.8904C42.7188 63.416 43.0653 68.005 44.0851 72.4222C44.5072 74.2525 45.0675 76.0428 45.809 77.7695C46.3955 79.1339 47.1229 80.4375 48.0839 81.575C48.8534 82.4855 49.8396 83.2681 50.9947 83.6155C52.1369 83.9591 53.3462 83.777 54.3903 83.227C55.5268 82.6275 56.4112 81.6161 57.1302 80.573C58.0314 79.2665 58.6833 77.791 59.2277 76.3061C60.6528 72.4175 61.2757 68.2226 61.5213 64.1042C61.5904 62.9425 61.624 61.778 61.6249 60.6134C61.6249 60.0755 61.1515 59.56 60.5968 59.5852C60.0392 59.6105 59.5686 60.0372 59.5686 60.6134L59.563 60.6172Z" fill="#020202"/>
<path d="M84.9809 82.7712C89.6047 82.7712 93.353 72.8525 93.353 60.6171C93.353 48.3817 89.6047 38.463 84.9809 38.463C80.3571 38.463 76.6088 48.3817 76.6088 60.6171C76.6088 72.8525 80.3571 82.7712 84.9809 82.7712Z" fill="#020202"/>
<path d="M92.3249 60.6172C92.323 62.8921 92.1978 65.167 91.9224 67.425C91.9074 67.5493 91.8915 67.6735 91.8757 67.7977C91.8691 67.8472 91.8645 67.8967 91.8561 67.9461C91.9046 67.6595 91.8607 67.9125 91.8533 67.9676C91.8159 68.2347 91.7767 68.5018 91.7356 68.7689C91.6581 69.2657 91.5731 69.7616 91.4797 70.2547C91.2985 71.2109 91.0856 72.1616 90.8353 73.102C90.6056 73.9621 90.3451 74.8138 90.0425 75.6515C89.9061 76.0297 89.7511 76.4004 89.6054 76.7758C89.7324 76.4481 89.6082 76.7674 89.5784 76.8356C89.5419 76.9187 89.5055 77.0018 89.4682 77.085C89.3878 77.2633 89.3047 77.4398 89.2197 77.6154C88.9125 78.2467 88.5688 78.8621 88.1757 79.4439C88.0926 79.5672 88.0067 79.6895 87.9179 79.81C87.875 79.8688 87.8292 79.9248 87.7872 79.9846C88.0029 79.6774 87.8236 79.9361 87.7629 80.0108C87.5752 80.2405 87.3763 80.4618 87.1643 80.6691C87.0737 80.7579 86.9803 80.8447 86.8851 80.9288C86.8384 80.9698 86.7917 81.0091 86.7431 81.0492C86.7198 81.0688 86.6955 81.0875 86.6722 81.1071C86.5209 81.2304 86.8832 80.9502 86.7515 81.0455C86.5545 81.1884 86.3546 81.3238 86.1399 81.4386C86.0381 81.4937 85.9325 81.5404 85.8279 81.5899C85.7224 81.6404 86.11 81.4779 85.969 81.5302C85.9391 81.5414 85.9092 81.5535 85.8784 81.5647C85.8186 81.5871 85.7579 81.6077 85.6972 81.6263C85.5963 81.6572 85.4946 81.6842 85.3918 81.7067C85.3405 81.7179 85.2891 81.7263 85.2377 81.7356C85.0416 81.772 85.5618 81.7011 85.2947 81.7272C85.0762 81.7487 84.8586 81.7431 84.6401 81.7244C84.4253 81.7057 84.9352 81.7739 84.7279 81.7356C84.6718 81.7253 84.6149 81.7151 84.5588 81.7029C84.4458 81.6786 84.3338 81.6478 84.2236 81.6114C84.1675 81.5937 84.1124 81.5741 84.0573 81.5526C83.8285 81.4657 84.2282 81.632 84.1227 81.5825C84.0125 81.5311 83.9023 81.4797 83.7959 81.4218C83.5811 81.3042 83.3859 81.1622 83.1851 81.0231C83.497 81.2388 83.2962 81.109 83.2215 81.0483C83.1692 81.0053 83.1169 80.9605 83.0656 80.9157C82.96 80.8232 82.8583 80.727 82.7583 80.628C82.5519 80.4226 82.3577 80.2041 82.1747 79.9781C82.1214 79.9127 81.9552 79.682 82.1765 79.9846C82.1336 79.9258 82.0887 79.8688 82.0458 79.81C81.9487 79.6774 81.8543 79.5429 81.7628 79.4056C81.5733 79.1227 81.3958 78.8322 81.2287 78.5371C81.0494 78.2196 80.8803 77.8965 80.7216 77.5678C80.6441 77.4081 80.5684 77.2465 80.4956 77.084C80.4582 77.0009 80.4218 76.9178 80.3854 76.8347C80.363 76.7843 80.3415 76.7338 80.32 76.6825C80.2369 76.4901 80.4171 76.9178 80.3377 76.7226C80.0165 75.9363 79.7307 75.1378 79.4805 74.3263C78.9136 72.4866 78.5102 70.5974 78.2179 68.6951C78.1805 68.4523 78.145 68.2095 78.1114 67.9658C78.1039 67.9107 78.061 67.6566 78.1086 67.9443C78.0983 67.8826 78.0927 67.821 78.0843 67.7584C78.0647 67.609 78.047 67.4596 78.0283 67.3102C77.9629 66.7648 77.9069 66.2185 77.8583 65.6722C77.7593 64.5497 77.6949 63.4244 77.6632 62.2972C77.5978 59.998 77.6632 57.6932 77.8723 55.4025C77.9209 54.8692 77.9769 54.3379 78.0423 53.8065C78.0572 53.6823 78.0731 53.5581 78.089 53.4339C78.0965 53.3788 78.1357 53.1229 78.0918 53.4115C78.0993 53.3629 78.1049 53.3134 78.1123 53.2639C78.1497 52.9968 78.1889 52.7297 78.23 52.4627C78.385 51.4643 78.5718 50.4707 78.7959 49.4855C79.1882 47.7616 79.7242 46.103 80.3602 44.4557C80.2332 44.7853 80.3648 44.4454 80.3975 44.3707C80.4377 44.2792 80.4778 44.1877 80.5189 44.0971C80.5992 43.9196 80.6823 43.7431 80.7683 43.5685C80.9242 43.251 81.0895 42.9372 81.266 42.63C81.4304 42.3433 81.6041 42.0613 81.789 41.7876C81.8805 41.6522 81.9748 41.5177 82.0729 41.3861C82.128 41.3114 82.3101 41.1115 82.0701 41.387C82.1261 41.3235 82.1756 41.2535 82.2298 41.1881C82.41 40.9705 82.5996 40.7604 82.8022 40.5624C82.8928 40.4737 82.9862 40.3868 83.0814 40.3028C83.1281 40.2617 83.1748 40.2225 83.2234 40.1823C83.2514 40.159 83.2804 40.1366 83.3084 40.1132C83.4326 40.0105 83.0908 40.2748 83.215 40.186C83.4214 40.0376 83.6306 39.8956 83.8566 39.777C83.9537 39.7257 84.0545 39.6818 84.1545 39.6351C83.7706 39.8162 84.1489 39.6425 84.2703 39.6052C84.3711 39.5744 84.4729 39.5473 84.5756 39.5249C84.627 39.5137 84.6784 39.5053 84.7297 39.4959C84.9389 39.4576 84.4131 39.5295 84.6728 39.5043C84.9025 39.4819 85.1294 39.4903 85.3582 39.5109C85.489 39.523 85.0202 39.4576 85.2704 39.5015C85.3218 39.5109 85.3732 39.5211 85.4236 39.5323C85.5366 39.5576 85.6486 39.5884 85.7588 39.6248C85.8093 39.6416 85.8597 39.6593 85.9101 39.678C85.9232 39.6827 85.9876 39.7182 86.0007 39.7135C86.0054 39.7116 85.7336 39.5949 85.8448 39.6481C85.955 39.7004 86.0642 39.7509 86.1716 39.8088C86.2762 39.8667 86.3789 39.9283 86.4789 39.9937C86.533 40.0292 86.5862 40.0646 86.6385 40.102C86.7189 40.159 86.9299 40.3429 86.632 40.0908C86.8347 40.2608 87.0354 40.4289 87.2222 40.6166C87.423 40.8183 87.6126 41.0312 87.7919 41.2525C87.819 41.2852 87.8442 41.3198 87.8712 41.3524C87.9656 41.4673 87.7863 41.2413 87.79 41.246C87.8348 41.3114 87.8871 41.3739 87.9338 41.4384C88.0356 41.5775 88.1337 41.7195 88.2299 41.8623C88.6118 42.4367 88.9452 43.0418 89.2459 43.6619C89.3271 43.83 89.4065 44 89.4831 44.1699C89.5242 44.2614 89.5643 44.353 89.6045 44.4445C89.6194 44.4781 89.6335 44.5117 89.6484 44.5463C89.7194 44.7116 89.5457 44.2988 89.6521 44.5575C89.8062 44.931 89.95 45.3092 90.0864 45.6893C90.7065 47.43 91.1566 49.2296 91.4974 51.0441C91.5927 51.5512 91.6786 52.0592 91.7571 52.5691C91.7963 52.8241 91.8327 53.0799 91.8682 53.3358C91.8943 53.5235 91.8663 53.3115 91.8617 53.2835C91.8738 53.3573 91.8813 53.432 91.8906 53.5058C91.9093 53.6552 91.928 53.8046 91.9457 53.954C92.0755 55.0467 92.1708 56.143 92.2343 57.2412C92.2987 58.3637 92.3295 59.4881 92.3305 60.6125C92.3305 61.1504 92.803 61.6659 93.3586 61.6407C93.9152 61.6155 94.3868 61.1887 94.3868 60.6125C94.384 56.1785 93.9414 51.6791 92.7722 47.3927C92.309 45.6921 91.7169 44.0149 90.9306 42.4357C90.3152 41.2002 89.5466 39.9815 88.539 39.0262C87.6331 38.167 86.5517 37.5684 85.2984 37.447C84.2077 37.3415 83.0786 37.7449 82.2083 38.3884C81.0932 39.213 80.236 40.3131 79.5421 41.5065C78.6913 42.969 78.0628 44.5677 77.5567 46.1787C76.2698 50.2699 75.7357 54.6152 75.6115 58.8904C75.4798 63.416 75.8262 68.005 76.846 72.4222C77.2681 74.2525 77.8285 76.0428 78.5709 77.7695C79.1573 79.1339 79.8848 80.4375 80.8458 81.575C81.6153 82.4855 82.6014 83.2681 83.7566 83.6155C84.8987 83.9591 86.1081 83.777 87.1522 83.227C88.2887 82.6275 89.1731 81.6161 89.8921 80.573C90.7933 79.2665 91.4451 77.791 91.9896 76.3061C93.4147 72.4175 94.0376 68.2226 94.2832 64.1042C94.3523 62.9425 94.3859 61.778 94.3868 60.6134C94.3868 60.0755 93.9134 59.56 93.3586 59.5852C92.8011 59.6105 92.3305 60.0372 92.3305 60.6134L92.3249 60.6172Z" fill="#020202"/>
</g>
<defs>
<clipPath id="clip0_2_6919">
<rect width="137" height="137" fill="white" transform="translate(0.0999756 0.900146)"/>
</clipPath>
</defs>
</svg>
