<svg width="48" height="48" viewBox="0 0 48 48" fill="none" xmlns="http://www.w3.org/2000/svg">
<rect x="6.10352e-05" y="0.000488281" width="48" height="48" rx="24" fill="#222325"/>
<g clip-path="url(#clip0_2_6878)">
<path d="M34.2437 15.8805C34.2272 15.8046 34.1908 15.7344 34.1383 15.6771C34.0858 15.6199 34.019 15.5776 33.9448 15.5545C33.6747 15.5013 33.3952 15.5213 33.1354 15.6124C33.1354 15.6124 15.1117 22.0905 14.0824 22.8079C13.86 22.9622 13.7861 23.0515 13.7494 23.1576C13.5714 23.668 14.1255 23.8931 14.1255 23.8931L18.7708 25.407C18.8493 25.4205 18.9298 25.4157 19.0061 25.3928C20.0629 24.7256 29.6383 18.6788 30.1918 18.4757C30.2786 18.4493 30.3429 18.4757 30.3287 18.54C30.1024 19.3153 21.8334 26.6638 21.7877 26.7088C21.7655 26.727 21.7481 26.7503 21.7369 26.7767C21.7257 26.8031 21.7211 26.8319 21.7234 26.8605L21.2914 31.3933C21.2914 31.3933 21.1102 32.8076 22.5219 31.3933C23.5228 30.3911 24.4832 29.5618 24.9647 29.1587C26.5622 30.2612 28.2812 31.4807 29.0224 32.1158C29.1468 32.2366 29.2942 32.3311 29.4559 32.3936C29.6177 32.4562 29.7903 32.4854 29.9636 32.4797C30.6707 32.4527 30.8636 31.6793 30.8636 31.6793C30.8636 31.6793 34.1473 18.4654 34.2579 16.6943C34.2682 16.5208 34.2829 16.4095 34.2842 16.2906C34.2901 16.1527 34.2765 16.0146 34.2437 15.8805Z" fill="#808080"/>
</g>
<defs>
<clipPath id="clip0_2_6878">
<rect width="20.5714" height="20.5714" fill="white" transform="translate(13.7142 13.7148)"/>
</clipPath>
</defs>
</svg>
