<svg width="49" height="48" viewBox="0 0 49 48" fill="none" xmlns="http://www.w3.org/2000/svg">
<rect x="0.600098" y="0.000488281" width="48" height="48" rx="24" fill="#222325"/>
<g clip-path="url(#clip0_2_6864)">
<path d="M34.8859 17.6367C34.1145 17.9581 33.343 18.2152 32.443 18.2795C33.343 17.7652 33.9859 16.9295 34.3073 15.9652C33.4716 16.4795 32.5716 16.8009 31.6073 16.9938C30.8359 16.1581 29.743 15.6438 28.5859 15.6438C26.2716 15.6438 24.343 17.5081 24.343 19.8867C24.343 20.2081 24.4073 20.5295 24.4716 20.8509C20.9359 20.6581 17.8502 18.9867 15.7288 16.4152C15.343 17.0581 15.1502 17.7652 15.1502 18.5367C15.1502 20.0152 15.9216 21.3009 17.0145 22.0724C16.3073 22.0724 15.6645 21.8795 15.0859 21.5581V21.6224C15.0859 23.6795 16.5645 25.3509 18.493 25.7367C18.1073 25.8009 17.7859 25.8652 17.4002 25.8652C17.143 25.8652 16.8859 25.8652 16.6288 25.8009C17.143 27.4724 18.7502 28.6938 20.5502 28.7581C19.1359 29.9152 17.2716 30.5581 15.2788 30.5581C14.9573 30.5581 14.5716 30.5581 14.2502 30.4938C16.1788 31.6509 18.4288 32.3581 20.8073 32.3581C28.5859 32.3581 32.8288 25.9295 32.8288 20.3367C32.8288 20.1438 32.8288 19.9509 32.8288 19.8224C33.6002 19.1795 34.3073 18.4724 34.8859 17.6367Z" fill="#808080"/>
</g>
<defs>
<clipPath id="clip0_2_6864">
<rect width="20.5714" height="20.5714" fill="white" transform="translate(14.3143 13.7148)"/>
</clipPath>
</defs>
</svg>
